<?xml version="1.0" encoding="UTF-8"?>
<svg xmlns="http://www.w3.org/2000/svg" xmlns:xlink="http://www.w3.org/1999/xlink" width="781pt" height="640pt" viewBox="0 0 781 640" version="1.1">
<g id="surface1">
<path style=" stroke:none;fill-rule:nonzero;fill:rgb(100%,72.156863%,72.156863%);fill-opacity:1;" d="M 515.210938 222.441406 C 517.644531 220.339844 520.410156 220.414062 522.8125 222.648438 C 525.214844 224.886719 527.027344 229.066406 527.796875 234.148438 C 527.914062 234.945312 528.003906 235.757812 528.066406 236.578125 L 565.207031 273.46875 L 573.800781 262.058594 L 584.492188 286.71875 L 571.371094 308.070312 C 568.128906 313.300781 563.558594 313.652344 560.128906 308.9375 L 522.449219 256.742188 C 522.167969 256.980469 521.882812 257.191406 521.589844 257.371094 C 519.054688 258.90625 516.308594 258.203125 514.046875 255.433594 C 511.789062 252.667969 510.222656 248.097656 509.746094 242.875 C 509.679688 242.125 509.632812 241.367188 509.609375 240.605469 C 509.394531 232.800781 511.628906 225.554688 515.210938 222.441406 Z M 515.210938 222.441406 "/>
<path style=" stroke:none;fill-rule:nonzero;fill:rgb(89.803922%,89.803922%,89.803922%);fill-opacity:1;" d="M 54.769531 336.984375 C 54.769531 343.0625 57.226562 347.992188 60.261719 347.992188 L 69.230469 347.992188 L 70.828125 353.792969 L 70.828125 611.273438 C 70.828125 617.351562 73.285156 622.277344 76.320312 622.277344 C 79.355469 622.277344 81.816406 617.351562 81.816406 611.273438 L 81.816406 347.992188 L 382.636719 347.992188 L 382.71875 611.273438 C 382.71875 617.351562 385.179688 622.277344 388.214844 622.277344 C 391.25 622.277344 393.707031 617.351562 393.707031 611.273438 L 393.707031 347.992188 L 403.429688 347.992188 C 406.460938 347.992188 408.921875 343.0625 408.921875 336.984375 C 408.921875 330.90625 406.460938 325.980469 403.429688 325.980469 L 60.261719 325.980469 C 57.226562 325.980469 54.769531 330.90625 54.769531 336.984375 Z M 54.769531 336.984375 "/>
<path style=" stroke:none;fill-rule:nonzero;fill:rgb(89.803922%,89.803922%,89.803922%);fill-opacity:1;" d="M 180.625 492.585938 L 180.625 451.953125 C 180.625 448.210938 179.109375 445.179688 177.242188 445.179688 L 100.328125 445.179688 C 98.460938 445.179688 96.945312 448.210938 96.945312 451.953125 L 96.945312 492.585938 Z M 180.625 492.585938 "/>
<path style=" stroke:none;fill-rule:nonzero;fill:rgb(89.803922%,89.803922%,89.803922%);fill-opacity:1;" d="M 96.945312 507.824219 L 180.625 507.824219 L 180.625 560.3125 L 96.945312 560.3125 Z M 96.945312 507.824219 "/>
<path style=" stroke:none;fill-rule:nonzero;fill:rgb(89.803922%,89.803922%,89.803922%);fill-opacity:1;" d="M 96.945312 575.550781 L 96.945312 616.183594 C 96.945312 619.925781 98.460938 622.957031 100.328125 622.957031 L 177.242188 622.957031 C 179.109375 622.957031 180.625 619.925781 180.625 616.183594 L 180.625 575.550781 Z M 96.945312 575.550781 "/>
<path style=" stroke:none;fill-rule:nonzero;fill:rgb(100%,100%,100%);fill-opacity:1;" d="M 141.742188 470.574219 C 141.742188 473.382812 140.609375 475.65625 139.207031 475.65625 C 137.808594 475.65625 136.671875 473.382812 136.671875 470.574219 C 136.671875 467.769531 137.808594 465.496094 139.207031 465.496094 C 140.609375 465.496094 141.742188 467.769531 141.742188 470.574219 Z M 141.742188 470.574219 "/>
<path style=" stroke:none;fill-rule:nonzero;fill:rgb(100%,100%,100%);fill-opacity:1;" d="M 141.742188 538.300781 C 141.742188 541.105469 140.609375 543.378906 139.207031 543.378906 C 137.808594 543.378906 136.671875 541.105469 136.671875 538.300781 C 136.671875 535.496094 137.808594 533.222656 139.207031 533.222656 C 140.609375 533.222656 141.742188 535.496094 141.742188 538.300781 Z M 141.742188 538.300781 "/>
<path style=" stroke:none;fill-rule:nonzero;fill:rgb(100%,100%,100%);fill-opacity:1;" d="M 141.609375 604.589844 C 141.609375 607.398438 140.472656 609.671875 139.070312 609.671875 C 137.671875 609.671875 136.535156 607.398438 136.535156 604.589844 C 136.535156 601.785156 137.671875 599.511719 139.070312 599.511719 C 140.472656 599.511719 141.609375 601.785156 141.609375 604.589844 Z M 141.609375 604.589844 "/>
<path style=" stroke:none;fill-rule:nonzero;fill:rgb(24.705882%,23.921569%,33.72549%);fill-opacity:1;" d="M 81.144531 311.648438 L 81.144531 325.089844 C 81.195312 326.613281 81.851562 327.769531 82.613281 327.679688 L 109.171875 327.679688 C 109.421875 327.679688 109.671875 327.566406 109.898438 327.34375 L 116.601562 320.621094 C 117.050781 320.234375 117.34375 319.351562 117.34375 318.367188 C 117.34375 317.386719 117.050781 316.5 116.601562 316.117188 L 109.898438 309.394531 C 109.671875 309.171875 109.421875 309.054688 109.171875 309.054688 L 82.613281 309.054688 C 81.851562 308.96875 81.195312 310.121094 81.144531 311.648438 Z M 81.144531 311.648438 "/>
<path style=" stroke:none;fill-rule:nonzero;fill:rgb(10.196078%,73.72549%,61.176471%);fill-opacity:1;" d="M 82.613281 309.054688 L 87.90625 309.054688 L 87.90625 327.679688 L 82.613281 327.679688 C 81.851562 327.769531 81.195312 326.613281 81.144531 325.089844 L 81.144531 311.648438 C 81.195312 310.121094 81.851562 308.96875 82.613281 309.054688 Z M 82.613281 309.054688 "/>
<path style=" stroke:none;fill-rule:nonzero;fill:rgb(90.196078%,90.196078%,90.196078%);fill-opacity:1;" d="M 719.671875 475.351562 C 712.78125 480.203125 705.125 477.503906 699.476562 468.226562 C 692.402344 456.332031 690.183594 436.738281 688.378906 418.59375 C 686.601562 400.707031 684.820312 382.816406 683.042969 364.929688 L 694.21875 380.34375 C 702.253906 391.429688 710.472656 402.867188 716.035156 418.921875 C 721.601562 434.980469 724.027344 456.894531 719.558594 474.269531 "/>
<path style=" stroke:none;fill-rule:nonzero;fill:rgb(94.901961%,94.901961%,94.901961%);fill-opacity:1;" d="M 718.71875 540.324219 C 719.847656 523.820312 721.011719 507.105469 720.21875 490.425781 C 719.515625 475.609375 717.257812 461.140625 712.664062 449.277344 C 710.226562 442.992188 707.257812 437.609375 703.898438 433.363281 C 703.019531 432.257812 702.214844 435.039062 703.085938 436.144531 C 708.902344 443.507812 713.402344 454.382812 715.9375 467.199219 C 718.734375 481.453125 719.183594 496.988281 718.699219 512.132812 C 718.410156 521.289062 717.792969 530.382812 717.167969 539.46875 C 717.066406 540.320312 717.3125 541.1875 717.730469 541.449219 C 718.15625 541.679688 718.597656 541.175781 718.71875 540.324219 Z M 718.71875 540.324219 "/>
<path style=" stroke:none;fill-rule:nonzero;fill:rgb(90.196078%,90.196078%,90.196078%);fill-opacity:1;" d="M 707.824219 511.121094 C 704.867188 520.121094 699.78125 525.378906 694.410156 524.988281 C 687.617188 524.34375 681.957031 514.851562 676.859375 505.835938 L 661.785156 479.175781 L 671.761719 478.21875 C 678.9375 477.53125 686.296875 476.890625 693.128906 481.324219 C 699.964844 485.753906 706.265625 496.421875 707.515625 510.589844 "/>
<path style=" stroke:none;fill-rule:nonzero;fill:rgb(94.901961%,94.901961%,94.901961%);fill-opacity:1;" d="M 721.914062 549.8125 C 716.46875 530.515625 710.15625 509.070312 698.871094 502.214844 C 695.734375 500.316406 692.445312 499.636719 689.179688 500.210938 C 688.152344 500.390625 688.410156 503.566406 689.4375 503.386719 C 694.910156 502.476562 700.371094 505.375 704.902344 511.585938 C 709.261719 517.53125 712.660156 525.796875 715.53125 534.5625 C 717.292969 539.933594 718.871094 545.53125 720.445312 551.121094 C 720.949219 552.90625 722.425781 551.617188 721.914062 549.8125 Z M 721.914062 549.8125 "/>
<path style=" stroke:none;fill-rule:nonzero;fill:rgb(94.901961%,94.901961%,94.901961%);fill-opacity:1;" d="M 730.636719 570.121094 C 730.261719 561.445312 727.507812 553.902344 723.492188 550.5625 L 723.492188 539.40625 L 714.152344 539.40625 L 714.152344 550.914062 C 710.339844 554.414062 707.757812 561.75 707.398438 570.121094 L 705.203125 621.265625 L 732.832031 621.265625 Z M 730.636719 570.121094 "/>
<path style=" stroke:none;fill-rule:nonzero;fill:rgb(80%,80%,80%);fill-opacity:1;" d="M 0 623.070312 C 0 622.132812 0.378906 621.375 0.84375 621.375 L 780.460938 621.992188 C 780.929688 621.992188 781 622.132812 781 623.070312 C 781 624.003906 780.621094 624.761719 780.15625 624.761719 L 0.84375 624.761719 C 0.378906 624.761719 0 624.003906 0 623.070312 Z M 0 623.070312 "/>
<path style=" stroke:none;fill-rule:nonzero;fill:rgb(90.196078%,90.196078%,90.196078%);fill-opacity:1;" d="M 202.25 324.160156 L 205.023438 321.820312 L 206.929688 293.957031 L 232.273438 293.957031 L 234.339844 321.707031 L 236.820312 324.191406 C 237.066406 324.4375 237.191406 324.988281 237.128906 325.519531 C 237.066406 326.054688 236.832031 326.429688 236.558594 326.429688 L 202.480469 326.429688 C 202.199219 326.429688 201.957031 326.035156 201.902344 325.484375 C 201.84375 324.933594 201.992188 324.378906 202.25 324.160156 Z M 202.25 324.160156 "/>
<path style=" stroke:none;fill-rule:nonzero;fill:rgb(80%,80%,80%);fill-opacity:1;" d="M 154.746094 292.726562 L 154.746094 257.554688 L 284.179688 257.554688 L 284.179688 292.726562 C 284.179688 295.449219 283.078125 297.660156 281.71875 297.664062 L 157.207031 297.664062 C 155.847656 297.660156 154.746094 295.449219 154.746094 292.726562 Z M 154.746094 292.726562 "/>
<path style=" stroke:none;fill-rule:nonzero;fill:rgb(24.705882%,23.921569%,33.72549%);fill-opacity:1;" d="M 154.617188 123.691406 C 154.617188 120.402344 155.949219 117.738281 157.589844 117.734375 L 281.320312 117.734375 C 282.960938 117.738281 284.289062 120.402344 284.292969 123.691406 L 284.292969 274.175781 L 154.617188 274.175781 Z M 154.617188 123.691406 "/>
<path style=" stroke:none;fill-rule:nonzero;fill:rgb(100%,100%,100%);fill-opacity:1;" d="M 160.066406 258.664062 L 160.066406 133.246094 C 160.070312 130.714844 161.09375 128.660156 162.359375 128.65625 L 276.546875 128.65625 C 277.8125 128.660156 278.839844 130.714844 278.839844 133.246094 L 278.839844 258.664062 C 278.839844 261.195312 277.8125 263.25 276.546875 263.253906 L 162.359375 263.253906 C 161.09375 263.25 160.070312 261.195312 160.066406 258.664062 Z M 160.066406 258.664062 "/>
<path style=" stroke:none;fill-rule:nonzero;fill:rgb(100%,100%,100%);fill-opacity:1;" d="M 400.726562 0 L 515.164062 0 L 515.164062 273.710938 L 400.726562 273.710938 Z M 400.726562 0 "/>
<path style=" stroke:none;fill-rule:nonzero;fill:rgb(89.803922%,89.803922%,89.803922%);fill-opacity:1;" d="M 400.726562 0 L 515.164062 0 L 515.164062 273.710938 L 400.726562 273.710938 Z M 513.144531 4.042969 L 402.746094 4.042969 L 402.746094 269.664062 L 513.144531 269.664062 Z M 513.144531 4.042969 "/>
<path style=" stroke:none;fill-rule:nonzero;fill:rgb(94.509804%,94.509804%,94.509804%);fill-opacity:1;" d="M 417.921875 132.546875 L 497.972656 132.546875 L 497.972656 138.742188 L 417.921875 138.742188 Z M 417.921875 132.546875 "/>
<path style=" stroke:none;fill-rule:nonzero;fill:rgb(79.607843%,79.607843%,79.607843%);fill-opacity:1;" d="M 489.363281 95.503906 L 490.234375 95.503906 L 490.234375 32.8125 L 459.484375 32.8125 L 459.484375 34.558594 L 489.363281 34.558594 Z M 489.363281 95.503906 "/>
<path style=" stroke:none;fill-rule:nonzero;fill:rgb(79.607843%,79.607843%,79.607843%);fill-opacity:1;" d="M 427.859375 101.253906 L 458.609375 101.253906 L 458.609375 99.507812 L 428.730469 99.507812 L 428.730469 38.5625 L 427.859375 38.5625 Z M 427.859375 101.253906 "/>
<path style=" stroke:none;fill-rule:nonzero;fill:rgb(94.509804%,94.509804%,94.509804%);fill-opacity:1;" d="M 417.921875 148.703125 L 497.972656 148.703125 L 497.972656 154.898438 L 417.921875 154.898438 Z M 417.921875 148.703125 "/>
<path style=" stroke:none;fill-rule:nonzero;fill:rgb(94.509804%,94.509804%,94.509804%);fill-opacity:1;" d="M 417.921875 164.859375 L 497.972656 164.859375 L 497.972656 171.054688 L 417.921875 171.054688 Z M 417.921875 164.859375 "/>
<path style=" stroke:none;fill-rule:nonzero;fill:rgb(94.509804%,94.509804%,94.509804%);fill-opacity:1;" d="M 417.921875 193.292969 L 497.972656 193.292969 L 497.972656 199.492188 L 417.921875 199.492188 Z M 417.921875 193.292969 "/>
<path style=" stroke:none;fill-rule:nonzero;fill:rgb(94.509804%,94.509804%,94.509804%);fill-opacity:1;" d="M 417.921875 209.449219 L 497.972656 209.449219 L 497.972656 215.648438 L 417.921875 215.648438 Z M 417.921875 209.449219 "/>
<path style=" stroke:none;fill-rule:nonzero;fill:rgb(94.509804%,94.509804%,94.509804%);fill-opacity:1;" d="M 417.921875 225.605469 L 497.972656 225.605469 L 497.972656 231.804688 L 417.921875 231.804688 Z M 417.921875 225.605469 "/>
<path style=" stroke:none;fill-rule:nonzero;fill:rgb(10.196078%,73.72549%,61.176471%);fill-opacity:1;" d="M 451.871094 49.839844 L 452.675781 47.859375 L 451.460938 45.085938 L 450.375 46.433594 C 449.75 45.453125 449.03125 44.726562 448.265625 44.300781 L 448.125 41.519531 L 446.285156 41.28125 L 445.976562 43.929688 C 445.113281 44.113281 444.277344 44.671875 443.527344 45.566406 L 442.617188 44.070312 L 441.230469 46.507812 L 441.855469 48.511719 C 441.316406 49.882812 440.929688 51.472656 440.726562 53.167969 L 439.378906 53.4375 L 439.257812 57.121094 L 440.617188 57.757812 C 440.730469 59.347656 441 60.875 441.410156 62.253906 L 440.664062 64.085938 L 441.878906 66.855469 L 442.882812 65.609375 C 443.527344 66.628906 444.269531 67.371094 445.0625 67.796875 L 445.207031 70.683594 L 447.042969 70.921875 L 447.371094 68.121094 C 448.203125 67.921875 449.007812 67.375 449.726562 66.515625 L 450.714844 68.132812 L 452.101562 65.699219 L 451.425781 63.527344 C 451.945312 62.207031 452.316406 60.683594 452.523438 59.054688 L 453.953125 58.765625 L 454.074219 55.082031 L 452.660156 54.421875 C 452.554688 52.800781 452.285156 51.242188 451.871094 49.839844 Z M 449.941406 63.4375 C 447.902344 67.023438 444.800781 66.621094 443.007812 62.539062 C 441.21875 58.453125 441.417969 52.234375 443.457031 48.648438 C 445.496094 45.058594 448.601562 45.460938 450.390625 49.546875 C 452.183594 53.628906 451.980469 59.847656 449.941406 63.4375 Z M 449.941406 63.4375 "/>
<path style=" stroke:none;fill-rule:nonzero;fill:rgb(10.196078%,73.72549%,61.176471%);fill-opacity:1;" d="M 462.898438 76.617188 L 464.011719 75.367188 L 463.390625 71.894531 L 462.136719 72.351562 C 461.734375 70.976562 461.199219 69.773438 460.5625 68.8125 L 460.941406 66.125 L 459.277344 64.550781 L 458.503906 66.785156 C 457.664062 66.320312 456.785156 66.226562 455.925781 66.503906 L 455.351562 64.441406 L 453.617188 65.691406 L 453.828125 68.015625 C 453.074219 68.890625 452.425781 70.085938 451.925781 71.511719 L 450.621094 70.773438 L 449.835938 74.109375 L 450.984375 75.703125 C 450.796875 77.265625 450.765625 78.882812 450.894531 80.46875 L 449.867188 81.621094 L 450.488281 85.09375 L 451.648438 84.671875 C 452.0625 86.09375 452.613281 87.332031 453.273438 88.308594 L 452.878906 91.101562 L 454.546875 92.675781 L 455.363281 90.3125 C 456.175781 90.738281 457.023438 90.820312 457.851562 90.554688 L 458.472656 92.78125 L 460.207031 91.535156 L 459.980469 89.023438 C 460.703125 88.171875 461.328125 87.03125 461.820312 85.667969 L 463.203125 86.453125 L 463.988281 83.113281 L 462.796875 81.460938 C 462.992188 79.875 463.027344 78.226562 462.898438 76.617188 Z M 458.617188 87.84375 C 456.0625 89.683594 453.246094 87.023438 452.332031 81.90625 C 451.414062 76.789062 452.742188 71.15625 455.296875 69.316406 C 457.847656 67.480469 460.664062 70.140625 461.578125 75.257812 C 462.496094 80.371094 461.167969 86.007812 458.617188 87.84375 Z M 458.617188 87.84375 "/>
<path style=" stroke:none;fill-rule:nonzero;fill:rgb(10.196078%,73.72549%,61.176471%);fill-opacity:1;" d="M 476.527344 60.683594 L 477.296875 58.640625 L 476.027344 55.96875 L 474.96875 57.402344 C 474.324219 56.46875 473.59375 55.800781 472.816406 55.4375 L 472.621094 52.671875 L 470.78125 52.578125 L 470.523438 55.25 C 469.664062 55.503906 468.839844 56.128906 468.109375 57.078125 L 467.167969 55.660156 L 465.832031 58.203125 L 466.496094 60.160156 C 465.984375 61.574219 465.632812 63.1875 465.460938 64.898438 L 464.121094 65.28125 L 464.074219 68.96875 L 465.445312 69.496094 C 465.589844 71.074219 465.886719 72.582031 466.324219 73.925781 L 465.617188 75.8125 L 466.886719 78.488281 L 467.863281 77.160156 C 468.527344 78.125 469.285156 78.808594 470.085938 79.171875 L 470.289062 82.042969 L 472.128906 82.136719 L 472.398438 79.3125 C 473.226562 79.042969 474.019531 78.433594 474.722656 77.519531 L 475.742188 79.054688 L 477.074219 76.511719 L 476.359375 74.394531 C 476.851562 73.03125 477.195312 71.480469 477.367188 69.839844 L 478.789062 69.4375 L 478.835938 65.746094 L 477.414062 65.199219 C 477.273438 63.589844 476.972656 62.054688 476.527344 60.683594 Z M 474.875 74.421875 C 472.910156 78.171875 469.800781 78.019531 467.929688 74.082031 C 466.058594 70.144531 466.132812 63.914062 468.101562 60.164062 C 470.066406 56.417969 473.175781 56.570312 475.046875 60.507812 C 476.917969 64.445312 476.839844 70.675781 474.875 74.421875 Z M 474.875 74.421875 "/>
<path style=" stroke:none;fill-rule:nonzero;fill:rgb(10.196078%,73.72549%,61.176471%);fill-opacity:1;" d="M 234.398438 206.867188 L 237.679688 206.347656 L 238.085938 196.863281 L 234.898438 195.230469 C 234.695312 191.136719 234.085938 187.167969 233.113281 183.550781 L 235.449219 178.0625 L 232.390625 170.78125 L 229.378906 174.351562 C 227.660156 171.457031 225.652344 169.339844 223.488281 168.140625 L 223.246094 162.070312 L 218.511719 161.253906 L 217.757812 167.15625 C 215.523438 167.59375 213.363281 168.992188 211.425781 171.257812 L 208.761719 166.710938 L 205.125 172.839844 L 206.960938 179.042969 C 205.683594 182.296875 204.742188 186.03125 204.195312 190.019531 L 201.164062 190.503906 L 200.753906 199.984375 L 203.699219 201.496094 C 203.90625 205.71875 204.539062 209.808594 205.558594 213.523438 L 203.136719 219.21875 L 206.195312 226.5 L 209.382812 222.722656 C 211.054688 225.46875 212.992188 227.484375 215.074219 228.644531 L 215.335938 235.214844 L 220.070312 236.03125 L 220.886719 229.648438 C 223.039062 229.214844 225.121094 227.890625 227.003906 225.757812 L 229.820312 230.574219 L 233.457031 224.445312 L 231.554688 218.003906 C 232.867188 214.714844 233.835938 210.925781 234.398438 206.867188 Z M 218.324219 223.949219 C 211.351562 222.75 206.183594 210.453125 206.785156 196.488281 C 207.386719 182.519531 213.523438 172.171875 220.496094 173.371094 C 227.46875 174.574219 232.632812 186.871094 232.035156 200.835938 C 231.433594 214.804688 225.296875 225.152344 218.324219 223.949219 Z M 218.324219 223.949219 "/>
<path style=" stroke:none;fill-rule:nonzero;fill:rgb(24.705882%,23.921569%,33.72549%);fill-opacity:1;" d="M 592.5625 449.570312 L 551.984375 449.570312 C 551.984375 451.90625 510.160156 453.804688 510.160156 453.804688 C 509.503906 454.792969 508.90625 455.929688 508.375 457.191406 C 506.789062 460.984375 505.921875 465.78125 505.925781 470.734375 L 505.925781 474.121094 C 505.925781 485.808594 510.65625 495.28125 516.492188 495.285156 L 592.5625 495.285156 C 598.394531 495.277344 603.121094 485.804688 603.128906 474.121094 L 603.128906 470.734375 C 603.121094 459.054688 598.394531 449.585938 592.5625 449.570312 Z M 592.5625 449.570312 "/>
<path style=" stroke:none;fill-rule:nonzero;fill:rgb(24.705882%,23.921569%,33.72549%);fill-opacity:1;" d="M 548.421875 494.445312 L 559.410156 494.445312 L 559.410156 636.667969 L 548.421875 636.667969 Z M 548.421875 494.445312 "/>
<path style=" stroke:none;fill-rule:nonzero;fill:rgb(24.705882%,23.921569%,33.72549%);fill-opacity:1;" d="M 517.148438 635.894531 C 517.148438 638.273438 533.796875 636.8125 554.335938 636.8125 C 574.878906 636.8125 591.527344 638.273438 591.527344 635.894531 C 591.527344 633.515625 574.878906 614.65625 554.335938 614.65625 C 533.796875 614.65625 517.148438 633.515625 517.148438 635.894531 Z M 517.148438 635.894531 "/>
<path style=" stroke:none;fill-rule:nonzero;fill:rgb(100%,72.156863%,72.156863%);fill-opacity:1;" d="M 527.066406 619.226562 L 516.703125 619.222656 L 511.773438 565.386719 L 527.066406 565.390625 Z M 527.066406 619.226562 "/>
<path style=" stroke:none;fill-rule:nonzero;fill:rgb(18.431373%,18.039216%,25.490196%);fill-opacity:1;" d="M 529.710938 639.34375 L 496.296875 639.34375 L 496.296875 638.496094 C 496.296875 624.109375 502.117188 612.445312 509.300781 612.445312 L 529.710938 612.445312 Z M 529.710938 639.34375 "/>
<path style=" stroke:none;fill-rule:nonzero;fill:rgb(18.431373%,18.039216%,25.490196%);fill-opacity:1;" d="M 511.566406 585.839844 L 490.910156 493.042969 C 487.332031 476.824219 490.578125 457.824219 498.363281 449.386719 L 543.171875 401.257812 L 563.621094 397.773438 L 582.480469 394.339844 L 582.617188 394.800781 C 582.789062 395.386719 586.847656 409.417969 584.105469 424.804688 C 582.023438 436.472656 576.617188 445.589844 568.027344 451.898438 C 547.984375 466.621094 524.828125 479.203125 515.804688 483.929688 C 515 484.339844 514.316406 485.425781 513.9375 486.90625 C 513.554688 488.371094 513.492188 490.089844 513.769531 491.648438 L 532.960938 578.019531 C 533.367188 580.242188 533.238281 582.714844 532.605469 584.710938 C 531.976562 586.710938 530.917969 588.011719 529.742188 588.230469 L 515.402344 590.320312 C 515.28125 590.34375 515.160156 590.355469 515.039062 590.355469 C 513.539062 590.355469 512.179688 588.585938 511.566406 585.839844 Z M 511.566406 585.839844 "/>
<path style=" stroke:none;fill-rule:nonzero;fill:rgb(100%,72.156863%,72.156863%);fill-opacity:1;" d="M 533.828125 619.226562 L 523.464844 619.222656 L 518.535156 565.386719 L 533.828125 565.390625 Z M 533.828125 619.226562 "/>
<path style=" stroke:none;fill-rule:nonzero;fill:rgb(18.431373%,18.039216%,25.490196%);fill-opacity:1;" d="M 536.472656 639.34375 L 503.058594 639.34375 L 503.058594 638.496094 C 503.058594 624.109375 508.878906 612.445312 516.0625 612.445312 L 536.472656 612.445312 Z M 536.472656 639.34375 "/>
<path style=" stroke:none;fill-rule:nonzero;fill:rgb(18.431373%,18.039216%,25.490196%);fill-opacity:1;" d="M 519.175781 590.917969 L 498.515625 498.121094 C 494.941406 481.902344 498.183594 462.902344 505.96875 454.46875 L 550.777344 406.335938 L 571.226562 402.851562 L 586 400.285156 L 585.996094 399.878906 C 586.171875 400.46875 590.226562 414.5 587.484375 429.882812 C 585.40625 441.554688 584.222656 450.667969 575.636719 456.976562 C 555.59375 471.699219 532.4375 484.28125 523.414062 489.007812 C 522.605469 489.421875 521.925781 490.503906 521.542969 491.988281 C 521.160156 493.449219 521.101562 495.167969 521.378906 496.726562 L 540.570312 583.101562 C 540.976562 585.320312 540.84375 587.792969 540.214844 589.792969 C 539.582031 591.789062 538.523438 593.089844 537.351562 593.308594 L 523.007812 595.398438 C 522.886719 595.421875 522.765625 595.433594 522.644531 595.433594 C 521.144531 595.433594 519.785156 593.664062 519.175781 590.917969 Z M 519.175781 590.917969 "/>
<path style=" stroke:none;fill-rule:nonzero;fill:rgb(10.196078%,73.72549%,61.176471%);fill-opacity:1;" d="M 558.105469 401.976562 C 557.117188 400.574219 542.890625 415.523438 540.355469 403.671875 C 552.191406 344.410156 544.035156 318.824219 551.285156 284.839844 C 553.871094 272.964844 559.03125 264.117188 565.285156 260.832031 L 584.09375 258.929688 L 584.191406 259.023438 C 592.90625 267.574219 597.789062 286.558594 596.210938 305.734375 C 596.140625 342.71875 585.097656 370.925781 588.957031 397.75 C 589.285156 400.015625 589.136719 402.453125 588.550781 404.496094 C 587.976562 406.46875 587.027344 407.886719 585.914062 408.402344 L 561.085938 401.769531 C 559.910156 402.328125 558.671875 401.847656 557.6875 400.453125 Z M 558.105469 401.976562 "/>
<path style=" stroke:none;fill-rule:nonzero;fill:rgb(100%,72.156863%,72.156863%);fill-opacity:1;" d="M 598.578125 203.277344 C 598.578125 226.242188 589.28125 244.859375 577.816406 244.859375 C 566.351562 244.859375 557.058594 226.242188 557.058594 203.277344 C 557.058594 180.308594 566.351562 161.691406 577.816406 161.691406 C 589.28125 161.691406 598.578125 180.308594 598.578125 203.277344 Z M 598.578125 203.277344 "/>
<path style=" stroke:none;fill-rule:nonzero;fill:rgb(100%,72.156863%,72.156863%);fill-opacity:1;" d="M 538.605469 344.195312 L 502.535156 287.195312 C 502.25 287.394531 501.957031 287.570312 501.660156 287.710938 C 499.085938 288.917969 496.375 287.875 494.207031 284.847656 C 492.023438 281.816406 490.597656 277.042969 490.296875 271.753906 C 489.722656 261.949219 493.066406 252.949219 497.921875 251.238281 C 502.777344 249.53125 507.453125 255.707031 508.582031 265.320312 C 508.675781 266.128906 508.742188 266.949219 508.777344 267.777344 L 544.683594 309.269531 L 553.621094 298.964844 L 563.519531 324.925781 L 549.644531 344.734375 C 546.308594 349.457031 541.820312 349.238281 538.605469 344.195312 Z M 538.605469 344.195312 "/>
<path style=" stroke:none;fill-rule:nonzero;fill:rgb(10.196078%,73.72549%,61.176471%);fill-opacity:1;" d="M 567.917969 333.007812 L 547.339844 304.976562 L 557.011719 277.535156 C 559.664062 270.011719 564.632812 267.410156 568.785156 271.371094 C 572.984375 275.382812 575.101562 284.929688 573.765625 293.863281 Z M 567.917969 333.007812 "/>
<path style=" stroke:none;fill-rule:nonzero;fill:rgb(18.431373%,18.039216%,25.490196%);fill-opacity:1;" d="M 584.429688 241.445312 C 583.328125 242.410156 581.066406 224.804688 582.078125 221.285156 C 583.585938 216.046875 583.496094 216.085938 584.496094 212.621094 C 585.492188 209.15625 585.714844 204.414062 584.421875 201.367188 C 583.128906 198.316406 580.136719 198.722656 579.546875 202.542969 C 579.925781 195.285156 576.339844 189.449219 572.789062 187.808594 C 569.238281 186.167969 565.492188 187.1875 561.921875 185.726562 C 557.777344 184.035156 553.46875 177.078125 555.121094 167.949219 C 555.40625 166.429688 555.828125 165.03125 556.371094 163.828125 C 558.28125 159.527344 560.953125 157.6875 563.566406 155.914062 C 569.003906 152.21875 574.585938 148.476562 580.320312 148.882812 C 589.980469 149.894531 598.421875 162.261719 601.832031 180.390625 C 602.226562 182.609375 602.53125 184.890625 602.746094 187.207031 C 604.714844 208.410156 598.566406 229.328125 588.582031 237.402344 Z M 584.429688 241.445312 "/>
<path style=" stroke:none;fill-rule:nonzero;fill:rgb(24.705882%,23.921569%,33.72549%);fill-opacity:1;" d="M 289.59375 470.585938 L 289.59375 473.972656 C 289.601562 485.65625 294.328125 495.125 300.160156 495.136719 L 376.230469 495.136719 C 382.066406 495.132812 386.792969 485.660156 386.796875 473.972656 L 386.796875 470.585938 C 386.800781 465.632812 385.933594 460.835938 384.34375 457.039062 C 383.816406 455.78125 383.21875 454.644531 382.5625 453.65625 C 382.5625 453.65625 340.738281 451.757812 340.738281 449.421875 L 300.160156 449.421875 C 294.328125 449.4375 289.601562 458.902344 289.59375 470.585938 Z M 289.59375 470.585938 "/>
<path style=" stroke:none;fill-rule:nonzero;fill:rgb(24.705882%,23.921569%,33.72549%);fill-opacity:1;" d="M 333.3125 494.296875 L 344.300781 494.296875 L 344.300781 636.515625 L 333.3125 636.515625 Z M 333.3125 494.296875 "/>
<path style=" stroke:none;fill-rule:nonzero;fill:rgb(24.705882%,23.921569%,33.72549%);fill-opacity:1;" d="M 338.382812 614.507812 C 317.84375 614.507812 301.195312 633.367188 301.195312 635.746094 C 301.195312 638.121094 317.84375 636.664062 338.382812 636.664062 C 358.925781 636.664062 375.574219 638.121094 375.574219 635.746094 C 375.574219 633.367188 358.925781 614.507812 338.382812 614.507812 Z M 338.382812 614.507812 "/>
<path style=" stroke:none;fill-rule:nonzero;fill:rgb(100%,72.156863%,72.156863%);fill-opacity:1;" d="M 375.082031 562.429688 L 390.378906 562.429688 L 385.445312 616.265625 L 375.085938 616.265625 Z M 375.082031 562.429688 "/>
<path style=" stroke:none;fill-rule:nonzero;fill:rgb(18.431373%,18.039216%,25.490196%);fill-opacity:1;" d="M 372.441406 609.488281 L 392.847656 609.484375 L 392.851562 609.484375 C 400.03125 609.484375 405.855469 621.148438 405.855469 635.535156 L 405.855469 636.382812 L 372.441406 636.386719 Z M 372.441406 609.488281 "/>
<path style=" stroke:none;fill-rule:nonzero;fill:rgb(18.431373%,18.039216%,25.490196%);fill-opacity:1;" d="M 387.113281 587.394531 C 386.992188 587.394531 386.871094 587.382812 386.75 587.359375 L 372.410156 585.269531 C 371.234375 585.050781 370.175781 583.75 369.546875 581.753906 C 368.914062 579.753906 368.78125 577.28125 369.1875 575.0625 L 388.382812 488.6875 C 388.660156 487.128906 388.597656 485.414062 388.214844 483.949219 C 387.832031 482.464844 387.152344 481.382812 386.347656 480.96875 C 377.320312 476.242188 354.167969 463.660156 334.121094 448.9375 C 325.535156 442.628906 320.125 433.515625 318.046875 421.84375 C 315.304688 406.460938 319.363281 392.429688 319.535156 391.839844 L 319.671875 391.378906 L 338.53125 394.8125 L 358.980469 398.296875 L 403.789062 446.429688 C 411.574219 454.863281 414.820312 473.863281 411.242188 490.082031 L 390.585938 582.878906 C 389.972656 585.625 388.613281 587.394531 387.113281 587.394531 Z M 387.113281 587.394531 "/>
<path style=" stroke:none;fill-rule:nonzero;fill:rgb(100%,72.156863%,72.156863%);fill-opacity:1;" d="M 370.011719 562.429688 L 385.304688 562.429688 L 380.375 616.265625 L 370.015625 616.265625 Z M 370.011719 562.429688 "/>
<path style=" stroke:none;fill-rule:nonzero;fill:rgb(18.431373%,18.039216%,25.490196%);fill-opacity:1;" d="M 367.371094 609.488281 L 387.777344 609.484375 C 394.960938 609.484375 400.785156 621.148438 400.785156 635.535156 L 400.785156 636.382812 L 367.371094 636.386719 Z M 367.371094 609.488281 "/>
<path style=" stroke:none;fill-rule:nonzero;fill:rgb(18.431373%,18.039216%,25.490196%);fill-opacity:1;" d="M 381.195312 592.476562 C 381.074219 592.476562 380.953125 592.464844 380.832031 592.441406 L 366.492188 590.347656 C 365.316406 590.128906 364.257812 588.832031 363.628906 586.832031 C 362.996094 584.832031 362.867188 582.359375 363.273438 580.140625 L 382.464844 493.765625 C 382.742188 492.210938 382.683594 490.492188 382.300781 489.027344 C 381.917969 487.546875 381.238281 486.460938 380.429688 486.046875 C 371.40625 481.324219 348.25 468.738281 328.207031 454.015625 C 319.617188 447.710938 314.210938 438.59375 312.128906 426.925781 C 309.390625 411.539062 313.445312 397.507812 313.617188 396.917969 L 313.753906 396.457031 L 332.617188 399.890625 L 353.0625 403.375 L 397.871094 451.507812 C 405.660156 459.941406 408.902344 478.945312 405.324219 495.164062 L 384.667969 587.960938 C 384.058594 590.703125 382.695312 592.472656 381.195312 592.476562 Z M 381.195312 592.476562 "/>
<path style=" stroke:none;fill-rule:nonzero;fill:rgb(10.196078%,73.72549%,61.176471%);fill-opacity:1;" d="M 308.9375 263.9375 C 311.828125 256.625 316.945312 254.625 320.992188 259.222656 C 324.992188 263.761719 326.777344 273.414062 325.222656 282.078125 L 319.539062 313.683594 L 296.277344 295.972656 Z M 308.9375 263.9375 "/>
<path style=" stroke:none;fill-rule:nonzero;fill:rgb(10.196078%,73.72549%,61.176471%);fill-opacity:1;" d="M 355.449219 421.195312 C 354.464844 422.59375 353.230469 423.070312 352.054688 422.511719 L 316.234375 405.445312 C 315.125 404.925781 314.171875 403.511719 313.601562 401.535156 C 313.015625 399.492188 312.867188 397.054688 313.195312 394.789062 C 317.054688 367.964844 311.992188 334.714844 305.941406 302.777344 C 304.363281 283.597656 309.246094 264.613281 317.960938 256.066406 L 318.058594 255.972656 L 336.863281 257.871094 C 343.121094 261.160156 348.28125 270.003906 350.867188 281.878906 C 358.117188 315.863281 360.191406 359.46875 357.210938 415.1875 C 357.082031 417.605469 356.441406 419.792969 355.449219 421.195312 Z M 355.449219 421.195312 "/>
<path style=" stroke:none;fill-rule:nonzero;fill:rgb(100%,72.156863%,72.156863%);fill-opacity:1;" d="M 327.660156 159.269531 C 338.976562 162.945312 346.664062 184.308594 344.828125 206.976562 C 342.988281 229.648438 332.328125 245.042969 321.007812 241.363281 C 309.691406 237.683594 302.007812 216.324219 303.84375 193.65625 C 305.679688 170.984375 316.34375 155.589844 327.660156 159.269531 Z M 327.660156 159.269531 "/>
<path style=" stroke:none;fill-rule:nonzero;fill:rgb(100%,72.156863%,72.156863%);fill-opacity:1;" d="M 352.507812 341.773438 L 338.632812 321.964844 L 348.53125 296.007812 L 357.46875 306.3125 L 393.375 264.816406 C 393.410156 263.992188 393.476562 263.167969 393.570312 262.359375 C 394.742188 252.347656 399.75 246.136719 404.746094 248.492188 C 409.746094 250.84375 412.84375 260.871094 411.671875 270.882812 C 410.496094 280.898438 405.492188 287.105469 400.492188 284.75 C 400.195312 284.609375 399.902344 284.4375 399.617188 284.234375 L 363.546875 341.234375 C 360.328125 346.277344 355.84375 346.496094 352.507812 341.773438 Z M 352.507812 341.773438 "/>
<path style=" stroke:none;fill-rule:nonzero;fill:rgb(10.196078%,73.72549%,61.176471%);fill-opacity:1;" d="M 328.386719 290.902344 C 327.050781 281.96875 329.167969 272.425781 333.367188 268.414062 C 337.519531 264.449219 342.488281 267.054688 345.140625 274.574219 L 354.8125 302.015625 L 334.234375 330.050781 Z M 328.386719 290.902344 "/>
<path style=" stroke:none;fill-rule:nonzero;fill:rgb(18.431373%,18.039216%,25.490196%);fill-opacity:1;" d="M 331.996094 194.296875 C 332.796875 197.132812 332.59375 200.679688 331.496094 203.078125 C 328.546875 209.761719 327.757812 220.101562 328.824219 229.007812 C 330.097656 239.699219 333.484375 248.808594 336.828125 257.519531 C 340.171875 266.230469 343.632812 275.179688 345.101562 285.769531 C 348.582031 310.835938 339.238281 337.570312 327.234375 347.5 C 315.226562 357.429688 301.558594 354.285156 288.917969 348.300781 C 279.375 343.785156 269.53125 337.140625 263.007812 322.484375 C 256.484375 307.828125 254.75 283.019531 261.683594 269.136719 C 267.121094 258.253906 275.582031 257.378906 283.144531 254.652344 C 290.707031 251.925781 299.277344 243.890625 300.289062 228.632812 C 301.296875 213.472656 294.203125 200.941406 292.867188 185.882812 C 291.207031 167.15625 299.339844 149.3125 308.539062 144.617188 C 317.742188 139.921875 327.445312 145.136719 336.355469 151.695312 C 343.214844 156.738281 350.382812 163.320312 352.992188 178.269531 C 354.441406 186.578125 353.316406 196.050781 349.738281 201.167969 C 344.289062 208.957031 337.28125 201.4375 331.945312 194.121094 Z M 331.996094 194.296875 "/>
</g>
</svg>
