<?xml version="1.0" encoding="UTF-8"?>
<svg xmlns="http://www.w3.org/2000/svg" xmlns:xlink="http://www.w3.org/1999/xlink" width="781pt" height="640pt" viewBox="0 0 781 640" version="1.1">
<defs>
<filter id="alpha" filterUnits="objectBoundingBox" x="0%" y="0%" width="100%" height="100%">
  <feColorMatrix type="matrix" in="SourceGraphic" values="0 0 0 0 1 0 0 0 0 1 0 0 0 0 1 0 0 0 1 0"/>
</filter>
<mask id="mask0">
  <g filter="url(#alpha)">
<rect x="0" y="0" width="781" height="640" style="fill:rgb(0%,0%,0%);fill-opacity:0.2;stroke:none;"/>
  </g>
</mask>
<clipPath id="clip1">
  <rect x="0" y="0" width="781" height="640"/>
</clipPath>
<g id="surface5" clip-path="url(#clip1)">
<path style=" stroke:none;fill-rule:nonzero;fill:rgb(0%,0%,0%);fill-opacity:1;" d="M 237.785156 365.988281 L 236.296875 363.695312 L 236 363.238281 C 238.125 366.507812 237.546875 371.144531 234.710938 373.597656 L 224.332031 382.5625 C 221.496094 385.015625 217.476562 384.351562 215.351562 381.078125 L 215.648438 381.539062 L 217.136719 383.828125 C 219.261719 387.097656 223.28125 387.761719 226.117188 385.3125 L 236.5 376.34375 C 239.332031 373.894531 239.910156 369.257812 237.785156 365.988281 Z M 237.785156 365.988281 "/>
</g>
</defs>
<g id="surface1">
<path style=" stroke:none;fill-rule:nonzero;fill:rgb(90.196078%,90.196078%,90.196078%);fill-opacity:1;" d="M 132.652344 630.4375 C 132.652344 625.378906 102.964844 621.277344 66.34375 621.277344 C 29.722656 621.277344 0.0351562 625.378906 0.0351562 630.4375 C 0.0351562 635.492188 29.722656 639.59375 66.34375 639.59375 C 102.964844 639.59375 132.652344 635.492188 132.652344 630.4375 Z M 132.652344 630.4375 "/>
<path style=" stroke:none;fill-rule:nonzero;fill:rgb(90.196078%,90.196078%,90.196078%);fill-opacity:1;" d="M 173.160156 0.398438 L 780.644531 0.398438 L 780.644531 448.976562 L 173.160156 448.976562 Z M 173.160156 0.398438 "/>
<path style=" stroke:none;fill-rule:nonzero;fill:rgb(100%,100%,100%);fill-opacity:1;" d="M 190.527344 56.660156 L 763.273438 56.660156 L 763.273438 422.4375 L 190.527344 422.4375 Z M 190.527344 56.660156 "/>
<path style=" stroke:none;fill-rule:nonzero;fill:rgb(10.196078%,73.72549%,61.176471%);fill-opacity:1;" d="M 172.898438 0 L 780.382812 0 L 780.382812 29.757812 L 172.898438 29.757812 Z M 172.898438 0 "/>
<path style=" stroke:none;fill-rule:nonzero;fill:rgb(100%,100%,100%);fill-opacity:1;" d="M 196.859375 15.214844 C 196.859375 18.257812 194.71875 20.726562 192.078125 20.726562 C 189.4375 20.726562 187.292969 18.257812 187.292969 15.214844 C 187.292969 12.167969 189.4375 9.699219 192.078125 9.699219 C 194.71875 9.699219 196.859375 12.167969 196.859375 15.214844 Z M 196.859375 15.214844 "/>
<path style=" stroke:none;fill-rule:nonzero;fill:rgb(100%,100%,100%);fill-opacity:1;" d="M 215.015625 15.214844 C 215.015625 18.257812 212.875 20.726562 210.234375 20.726562 C 207.59375 20.726562 205.449219 18.257812 205.449219 15.214844 C 205.449219 12.167969 207.59375 9.699219 210.234375 9.699219 C 212.875 9.699219 215.015625 12.167969 215.015625 15.214844 Z M 215.015625 15.214844 "/>
<path style=" stroke:none;fill-rule:nonzero;fill:rgb(100%,100%,100%);fill-opacity:1;" d="M 233.171875 15.214844 C 233.171875 18.257812 231.03125 20.726562 228.390625 20.726562 C 225.75 20.726562 223.605469 18.257812 223.605469 15.214844 C 223.605469 12.167969 225.75 9.699219 228.390625 9.699219 C 231.03125 9.699219 233.171875 12.167969 233.171875 15.214844 Z M 233.171875 15.214844 "/>
<path style=" stroke:none;fill-rule:nonzero;fill:rgb(49.803922%,46.666667%,100%);fill-opacity:1;" d="M 516.03125 148.75 C 515.929688 149.160156 515.871094 149.582031 515.859375 150.007812 Z M 516.03125 148.75 "/>
<path style=" stroke:none;fill-rule:nonzero;fill:rgb(49.803922%,46.666667%,100%);fill-opacity:1;" d="M 442.78125 187.398438 C 442.746094 186.476562 442.605469 186.09375 442.476562 186.046875 C 442.570312 186.902344 442.65625 187.601562 442.78125 187.398438 Z M 442.78125 187.398438 "/>
<path style=" stroke:none;fill-rule:nonzero;fill:rgb(49.803922%,46.666667%,100%);fill-opacity:1;" d="M 441.300781 206.800781 C 441.277344 207.199219 441.25 207.566406 441.207031 208.015625 C 441.121094 207.609375 441.15625 207.183594 441.300781 206.800781 Z M 441.300781 206.800781 "/>
<path style=" stroke:none;fill-rule:nonzero;fill:rgb(49.803922%,46.666667%,100%);fill-opacity:1;" d="M 515.859375 150.007812 L 515.410156 153.230469 C 515.875 153.457031 515.757812 151.578125 515.859375 150.007812 Z M 515.859375 150.007812 "/>
<path style=" stroke:none;fill-rule:nonzero;fill:rgb(49.803922%,46.666667%,100%);fill-opacity:1;" d="M 541.121094 119.949219 L 541.972656 119.949219 C 542.226562 119.753906 542.464844 119.53125 542.679688 119.277344 Z M 541.121094 119.949219 "/>
<path style=" stroke:none;fill-rule:nonzero;fill:rgb(49.803922%,46.666667%,100%);fill-opacity:1;" d="M 574.453125 121.648438 C 574.511719 121.175781 574.816406 120.796875 575.21875 120.6875 C 574.996094 120.328125 574.742188 119.996094 574.457031 119.699219 C 574.042969 119.636719 574.480469 121.035156 574.453125 121.648438 Z M 574.453125 121.648438 "/>
<path style=" stroke:none;fill-rule:nonzero;fill:rgb(49.803922%,46.666667%,100%);fill-opacity:1;" d="M 609.328125 94.242188 C 609.4375 94.222656 609.542969 94.203125 609.628906 94.183594 Z M 609.328125 94.242188 "/>
<path style=" stroke:none;fill-rule:nonzero;fill:rgb(49.803922%,46.666667%,100%);fill-opacity:1;" d="M 608.632812 94.375 L 609.328125 94.242188 C 609.097656 94.28125 608.835938 94.324219 608.632812 94.375 Z M 608.632812 94.375 "/>
<path style=" stroke:none;fill-rule:nonzero;fill:rgb(49.803922%,46.666667%,100%);fill-opacity:1;" d="M 514.4375 123.257812 C 514.265625 123.214844 514.09375 123.308594 514.007812 123.484375 C 514.15625 123.597656 514.300781 123.480469 514.4375 123.257812 Z M 514.4375 123.257812 "/>
<path style=" stroke:none;fill-rule:nonzero;fill:rgb(49.803922%,46.666667%,100%);fill-opacity:1;" d="M 651.824219 95.808594 L 651.890625 96.464844 C 652.109375 96.546875 652.339844 96.59375 652.570312 96.609375 Z M 651.824219 95.808594 "/>
<path style=" stroke:none;fill-rule:nonzero;fill:rgb(49.803922%,46.666667%,100%);fill-opacity:1;" d="M 438.617188 230.363281 C 438.625 230.363281 438.625 230.375 438.609375 230.394531 C 438.609375 230.402344 438.597656 230.414062 438.589844 230.421875 C 438.589844 230.441406 438.460938 230.464844 438.367188 230.484375 C 438.320312 230.46875 438.269531 230.457031 438.21875 230.453125 C 438.347656 230.433594 438.480469 230.402344 438.582031 230.394531 C 438.597656 230.375 438.609375 230.363281 438.617188 230.363281 Z M 438.617188 230.363281 "/>
<path style=" stroke:none;fill-rule:nonzero;fill:rgb(49.803922%,46.666667%,100%);fill-opacity:1;" d="M 341.40625 384.523438 C 338.003906 383.273438 346.945312 382.917969 341.820312 381.527344 C 342.300781 382.074219 337.164062 383.710938 341.40625 384.523438 Z M 341.40625 384.523438 "/>
<path style=" stroke:none;fill-rule:nonzero;fill:rgb(49.803922%,46.666667%,100%);fill-opacity:1;" d="M 368.609375 248.421875 C 368.492188 248.757812 368.308594 249.0625 368.074219 249.308594 C 368.335938 248.652344 368.480469 248.453125 368.609375 248.421875 Z M 368.609375 248.421875 "/>
<path style=" stroke:none;fill-rule:nonzero;fill:rgb(49.803922%,46.666667%,100%);fill-opacity:1;" d="M 418.992188 233.28125 C 418.523438 233.265625 418.058594 233.203125 417.601562 233.101562 Z M 418.992188 233.28125 "/>
<path style=" stroke:none;fill-rule:nonzero;fill:rgb(49.803922%,46.666667%,100%);fill-opacity:1;" d="M 350.578125 253.363281 C 350.105469 253.257812 349.617188 253.257812 349.144531 253.363281 C 349.242188 253.4375 349.347656 253.492188 349.457031 253.535156 C 349.8125 253.363281 350.199219 253.304688 350.578125 253.363281 Z M 350.578125 253.363281 "/>
<path style=" stroke:none;fill-rule:nonzero;fill:rgb(49.803922%,46.666667%,100%);fill-opacity:1;" d="M 350.578125 253.363281 C 350.761719 253.402344 350.949219 253.441406 351.1875 253.476562 C 350.988281 253.421875 350.785156 253.386719 350.578125 253.363281 Z M 350.578125 253.363281 "/>
<path style=" stroke:none;fill-rule:nonzero;fill:rgb(49.803922%,46.666667%,100%);fill-opacity:1;" d="M 320.832031 253.484375 C 320.996094 253.59375 321.207031 253.671875 321.394531 253.765625 C 321.695312 253.742188 322.046875 253.714844 322.355469 253.691406 Z M 320.832031 253.484375 "/>
<path style=" stroke:none;fill-rule:nonzero;fill:rgb(49.803922%,46.666667%,100%);fill-opacity:1;" d="M 346.03125 254.425781 C 346.027344 254.472656 346 254.515625 345.960938 254.535156 C 345.996094 254.476562 346.03125 254.425781 346.03125 254.425781 Z M 346.03125 254.425781 "/>
<path style=" stroke:none;fill-rule:nonzero;fill:rgb(49.803922%,46.666667%,100%);fill-opacity:1;" d="M 646.871094 382.492188 C 646.675781 382.472656 646.480469 382.453125 646.265625 382.429688 C 646.492188 382.460938 646.6875 382.480469 646.871094 382.492188 Z M 646.871094 382.492188 "/>
<path style=" stroke:none;fill-rule:nonzero;fill:rgb(49.803922%,46.666667%,100%);fill-opacity:1;" d="M 655.054688 350.371094 C 655.046875 350.371094 655.039062 350.375 655.03125 350.375 C 655.039062 350.414062 655.046875 350.402344 655.054688 350.371094 Z M 655.054688 350.371094 "/>
<path style=" stroke:none;fill-rule:nonzero;fill:rgb(49.803922%,46.666667%,100%);fill-opacity:1;" d="M 416.402344 234.1875 C 416.710938 234.117188 417.015625 234.015625 417.308594 233.878906 C 417.9375 234.066406 417.074219 234.058594 416.402344 234.1875 Z M 416.402344 234.1875 "/>
<path style=" stroke:none;fill-rule:nonzero;fill:rgb(49.803922%,46.666667%,100%);fill-opacity:1;" d="M 654.171875 227.699219 C 654.21875 227.464844 654.265625 227.199219 654.324219 226.875 C 654.269531 227.152344 654.222656 227.425781 654.171875 227.699219 Z M 654.171875 227.699219 "/>
<path style=" stroke:none;fill-rule:nonzero;fill:rgb(10.196078%,73.72549%,61.176471%);fill-opacity:1;" d="M 655.734375 333.726562 C 655.828125 333.488281 655.960938 333.273438 656.121094 333.089844 L 656.242188 333.589844 C 656.335938 332.566406 656.277344 331.53125 656.070312 330.53125 C 656.257812 329.203125 656.367188 327.863281 656.398438 326.519531 C 657.3125 325.953125 656.890625 320.824219 656.941406 318.355469 C 655.734375 318.554688 655.921875 315.378906 654.949219 318.277344 C 655.015625 318.109375 655.058594 318.953125 655.113281 320.46875 C 655.128906 320.820312 655.175781 321.175781 655.242188 321.523438 C 655.207031 321.472656 655.171875 321.414062 655.128906 321.351562 C 655.15625 322.976562 655.179688 325.097656 655.214844 327.503906 C 654.390625 325.386719 654.226562 323.007812 654.75 320.765625 C 653.972656 319.5 653.167969 318.097656 652.796875 317.3125 C 654.488281 313.925781 655.40625 307.394531 656.441406 306.488281 C 655.769531 298.933594 655.992188 288.691406 653.714844 283.933594 C 653.417969 281.78125 654.371094 281.464844 654.730469 280.65625 C 654.957031 281.902344 654.921875 283.375 655.25 284.050781 C 654.664062 279.75 655.023438 271.320312 653.429688 270.292969 C 654.144531 264.878906 654.894531 273.339844 654.636719 265.894531 L 655.121094 266.898438 C 657.625 252.511719 651.285156 243.414062 654.171875 227.695312 C 654.058594 228.28125 653.953125 228.632812 653.765625 228.789062 C 655.207031 210.292969 652.410156 190.664062 654.695312 172.40625 C 655.15625 167.21875 654.144531 166.652344 653.367188 163.484375 L 654.671875 162.359375 L 653.167969 156.945312 C 652.0625 149.269531 656.363281 143.65625 654.28125 133.929688 L 653.402344 135.183594 C 653.574219 131.6875 652.882812 124.121094 653.894531 124.710938 C 653.351562 124.035156 653.179688 123.070312 653.445312 122.203125 L 654.128906 122.089844 L 652.953125 113.511719 C 653.445312 106.871094 655.664062 114.554688 655.792969 104.847656 C 655.535156 101.246094 653.808594 94.585938 653.351562 95.941406 C 653.324219 97.394531 652.925781 99.652344 652.246094 99.761719 L 651.890625 96.46875 C 651.761719 96.425781 651.640625 96.386719 651.511719 96.335938 L 651.511719 95.808594 L 650.277344 95.808594 C 649.757812 95.554688 649.171875 95.554688 648.652344 95.808594 L 617.699219 95.808594 L 618.035156 95.421875 L 617.015625 95.808594 L 612.648438 95.808594 C 612.777344 95.511719 613.191406 95.261719 614.054688 95.144531 C 610.878906 94.117188 611.242188 95.878906 608.519531 94.734375 C 608.21875 94.554688 608.347656 94.457031 608.632812 94.375 L 605.523438 94.992188 C 606.136719 94.554688 605.015625 93.53125 606.914062 93.828125 C 601.355469 92.632812 597.945312 95.382812 595.847656 93.808594 L 596.3125 93.691406 C 590.535156 94.207031 592.980469 94.792969 592.152344 95.808594 L 588.542969 95.808594 L 587.816406 95.113281 L 586.839844 94.175781 C 586.507812 93.824219 586.148438 93.511719 585.761719 93.242188 C 585.464844 93.722656 585.199219 94.226562 584.96875 94.753906 C 584.070312 94.707031 582.222656 94.597656 582.308594 93.980469 C 580.726562 94.507812 581.054688 94.664062 581.4375 94.824219 C 581.851562 94.984375 582.351562 95.132812 581.710938 95.632812 C 580.699219 95.355469 579.667969 95.191406 578.628906 95.144531 C 578.515625 97.351562 578.65625 100.03125 578.613281 102.070312 C 578.570312 104.203125 578.351562 105.578125 577.507812 106.003906 C 578.507812 107.585938 578.285156 101.773438 578.984375 106.492188 C 576.722656 107.816406 579.363281 112.007812 578.328125 115.941406 C 577.160156 114.804688 577.785156 110.902344 576.738281 114.964844 C 577.066406 115.363281 577.308594 115.847656 577.445312 116.378906 C 577.542969 116.910156 577.554688 117.460938 577.480469 118 C 577.328125 118.957031 577.09375 119.894531 576.78125 120.796875 C 576.269531 120.648438 575.742188 120.613281 575.21875 120.6875 C 575.738281 121.59375 574.582031 121.78125 572.84375 121.824219 C 571.800781 121.824219 570.601562 121.832031 569.375 121.832031 C 568.085938 121.851562 566.765625 121.894531 565.523438 122.042969 C 565.832031 121.433594 556.1875 121.054688 551.578125 120.398438 L 551.707031 120.089844 C 550.820312 121.921875 546.0625 121.574219 542.589844 121.953125 C 542.726562 120.855469 543.351562 120.429688 545.230469 119.941406 L 541.96875 119.953125 C 541.199219 120.539062 540.191406 120.847656 538.074219 121.054688 L 538.894531 119.683594 C 536.726562 119.722656 534.542969 120.128906 532.203125 120.410156 C 531.027344 120.546875 529.828125 120.648438 528.558594 120.667969 C 527.929688 120.679688 527.28125 120.65625 526.617188 120.617188 C 526.289062 120.597656 525.953125 120.570312 525.617188 120.527344 C 525.234375 120.480469 524.855469 120.429688 524.476562 120.378906 C 524.355469 120.699219 524.777344 121.085938 525.046875 121.484375 C 525.378906 121.871094 525.679688 122.289062 525.945312 122.738281 C 526.097656 122.988281 526.128906 123.3125 526.019531 123.59375 L 523 123.59375 C 523.007812 123.214844 523.207031 122.878906 523.84375 122.699219 C 522.957031 122.992188 522.023438 123.0625 521.109375 122.90625 C 521.800781 122.53125 522.601562 122.140625 523.507812 121.753906 C 520.226562 121.246094 522.160156 122.71875 519.855469 122.609375 C 519.382812 121.632812 517.644531 121.914062 517.457031 121.136719 C 518.105469 121.035156 519.96875 121.535156 520.796875 121.15625 C 519.078125 121.054688 517.050781 120.828125 515.183594 120.507812 C 515.074219 121.46875 514.824219 122.394531 514.441406 123.257812 C 514.925781 123.304688 515.589844 124.242188 515.695312 126.800781 C 515.730469 130.074219 515.46875 130.601562 515.152344 130.8125 C 514.996094 130.910156 514.824219 130.921875 514.660156 131.179688 C 514.558594 131.355469 514.480469 131.546875 514.425781 131.75 C 514.335938 132.015625 514.273438 132.292969 514.234375 132.574219 C 514.824219 133.789062 514.210938 136.972656 515.488281 137.0625 C 515.480469 138.527344 514.882812 138.796875 514.539062 139.363281 C 515.097656 141.953125 514.703125 151.449219 516.058594 148.53125 L 516.144531 147.867188 C 516.167969 147.996094 516.179688 148.132812 516.203125 148.292969 C 516.558594 150.863281 516.695312 153.46875 516.617188 156.070312 C 516.566406 158.238281 516.386719 160.300781 516.210938 162.109375 C 514.945312 161.980469 513.769531 161.871094 512.671875 161.8125 C 512.121094 161.792969 511.585938 161.773438 511.050781 161.792969 L 510.011719 161.824219 C 509.652344 161.851562 509.28125 161.871094 508.917969 161.890625 L 508.933594 161.40625 C 504.574219 161.960938 499.230469 161.734375 496.121094 162.796875 C 494.835938 162.789062 493.082031 161.890625 493.632812 161.316406 C 490.300781 161.683594 489.929688 162.230469 485.121094 161.425781 C 488.460938 160.566406 483.964844 160.65625 488.546875 160.796875 C 484.222656 160.367188 483.238281 159.582031 478.59375 160.925781 C 480.171875 159.664062 475.339844 159.34375 473.28125 159.710938 L 476.3125 160.617188 C 474.183594 160.75 472.050781 160.738281 469.925781 160.578125 L 471.03125 158.925781 C 466.609375 157.921875 462.609375 158.777344 458.882812 159.464844 C 457.09375 159.839844 455.285156 160.054688 453.46875 160.109375 L 452.8125 160.101562 L 451.972656 160.050781 C 451.328125 160.011719 450.671875 159.949219 450.003906 159.863281 C 448.550781 159.660156 447.105469 159.367188 445.679688 158.984375 C 444.125 159.5625 446.199219 159.761719 448.105469 159.992188 C 450.066406 160.21875 451.84375 160.480469 450.496094 161.15625 C 447.644531 160.9375 444.800781 160.515625 441.992188 159.890625 C 441.433594 162.0625 441.046875 164.28125 440.828125 166.53125 C 440.722656 167.835938 440.6875 169.019531 440.6875 170.066406 C 440.6875 170.582031 440.699219 171.082031 440.722656 171.539062 C 440.730469 171.746094 440.742188 172.054688 440.757812 172.15625 C 440.773438 172.273438 440.792969 172.40625 440.808594 172.523438 C 440.957031 173.386719 441.191406 174.226562 441.507812 175.023438 C 442.332031 177.042969 442.636719 179.292969 442.382812 181.503906 C 442.890625 180.636719 444.261719 179.832031 444.738281 184.859375 C 444.636719 187.644531 443.890625 189.167969 443.226562 189.308594 C 442.855469 189.398438 442.511719 189.050781 442.3125 188.273438 C 442.25 188.078125 442.207031 187.871094 442.183594 187.664062 C 442.140625 186.542969 442.304688 186.003906 442.476562 186.042969 C 442.285156 184.53125 442.070312 182.539062 441.519531 184.402344 L 442.027344 185.007812 C 441.863281 185.859375 441.753906 186.726562 441.699219 187.597656 C 441.464844 190.273438 441.328125 193.390625 440.714844 192.285156 C 441.136719 195.320312 441.457031 194.277344 441.707031 192.253906 C 441.164062 197.632812 441.769531 200.976562 441.300781 206.800781 C 441.585938 205.8125 442.191406 204.898438 442.183594 205.882812 C 441.542969 214.984375 443.160156 209.894531 443.382812 216.058594 C 442.597656 219.5625 441.519531 214.804688 442.164062 221.003906 C 441.640625 224.796875 440.808594 221.8125 440.394531 220.308594 C 440.804688 222.886719 440.808594 225.53125 440.414062 228.113281 C 440.386719 228.28125 440.371094 228.453125 440.34375 228.609375 C 440.328125 228.730469 440.308594 228.859375 440.292969 228.980469 L 440.257812 229.1875 C 440.25 229.25 440.238281 229.238281 440.230469 229.257812 L 440.164062 229.359375 C 440.085938 229.457031 439.996094 229.546875 439.902344 229.625 C 439.78125 229.707031 439.667969 229.800781 439.558594 229.90625 C 439.472656 229.746094 439.367188 229.601562 439.246094 229.476562 C 439.351562 229.617188 439.402344 229.800781 439.386719 229.984375 C 439.492188 230.066406 439.601562 230.136719 439.714844 230.203125 C 439.9375 230.335938 440.171875 230.441406 440.414062 230.511719 C 440.238281 230.800781 440.230469 231.089844 439.894531 230.730469 C 439.855469 230.699219 439.820312 230.664062 439.789062 230.621094 C 440.09375 231.140625 440.453125 231.613281 440.863281 232.027344 C 441.3125 232.554688 441.847656 233.121094 441.335938 233.648438 C 440.628906 233.445312 439.890625 233.414062 439.167969 233.550781 C 438.988281 233.558594 438.808594 233.558594 438.632812 233.550781 C 438.363281 233.53125 438.089844 233.496094 437.824219 233.441406 C 437.382812 233.402344 436.984375 233.140625 436.734375 232.722656 C 437.539062 232.792969 438.117188 232.8125 438.546875 232.800781 C 438.78125 232.800781 438.867188 232.761719 438.9375 232.691406 C 439.058594 232.574219 438.972656 232.34375 438.894531 232.105469 C 438.746094 231.699219 438.695312 231.238281 438.953125 231.011719 C 438.914062 231.023438 438.875 231.03125 438.832031 231.03125 C 438.757812 231.027344 438.679688 231.011719 438.609375 230.980469 C 438.28125 230.949219 437.941406 230.910156 437.589844 230.871094 C 437.363281 230.691406 437.804688 230.542969 438.21875 230.453125 C 437.753906 230.34375 437.339844 230.265625 436.976562 230.203125 C 436.257812 230.054688 435.527344 230.054688 434.808594 230.203125 C 433.238281 230.632812 433.574219 232.214844 429.117188 232.183594 C 429.914062 231.308594 427.652344 230.511719 426.625 230.703125 C 429.171875 230.722656 427.839844 232.175781 425.511719 232.851562 C 421.460938 232.164062 421.113281 233.359375 418.992188 233.28125 L 421.410156 233.609375 C 420.589844 234.496094 418.566406 234.375 415.753906 234.652344 C 415.675781 234.433594 415.890625 234.316406 416.203125 234.226562 C 413.292969 234.742188 409.804688 232.433594 405.980469 233.289062 C 405.941406 233.292969 405.902344 233.296875 405.867188 233.308594 C 403.847656 232.710938 405.667969 231.65625 403.890625 231.25 C 399.003906 232.394531 398.597656 230.035156 393.449219 230.980469 C 394.9375 232.175781 395.195312 231.886719 391.570312 233.042969 L 400.03125 232.203125 L 394.597656 233.925781 C 397.15625 233.945312 399.988281 233.179688 401.515625 233.390625 C 398.925781 234.355469 399.191406 234.058594 400.417969 235.042969 C 396.921875 233.261719 393.496094 236.085938 389.460938 234.882812 L 389.582031 231.9375 C 387.015625 231.464844 384.402344 231.480469 381.839844 231.976562 L 380.855469 232.125 L 380.363281 232.195312 L 380.230469 232.214844 L 380.035156 232.234375 L 379.628906 232.273438 C 378.566406 232.363281 377.488281 232.464844 376.371094 232.5625 C 374.1875 232.734375 371.960938 232.851562 369.414062 232.832031 C 369.40625 234.144531 369.371094 235.511719 369.308594 236.933594 L 369.714844 233.179688 L 370.035156 233.21875 C 369.996094 233.285156 369.941406 233.339844 369.878906 233.371094 C 370.246094 235.214844 370.371094 237.117188 370.242188 239.003906 C 370.242188 239.171875 370.234375 239.351562 370.234375 239.53125 L 370.234375 239.542969 C 370.214844 240.476562 370.191406 241.453125 370.183594 242.429688 C 370.183594 243.007812 370.191406 243.574219 370.207031 244.132812 C 370.214844 244.410156 370.234375 244.679688 370.242188 244.949219 L 370.269531 245.335938 L 370.300781 245.605469 C 369.449219 245.324219 369.136719 247.167969 368.609375 248.421875 C 368.765625 248.382812 368.84375 248.78125 368.894531 249.40625 C 368.945312 249.667969 368.972656 249.984375 369.035156 250.363281 C 369.191406 251.398438 369.617188 252.355469 370.25 253.109375 C 370.121094 253.261719 369.972656 253.390625 369.808594 253.5 C 369.28125 253.269531 368.761719 253.007812 368.257812 252.710938 C 367.726562 252.582031 367.175781 252.65625 366.683594 252.921875 C 366.574219 252.980469 366.460938 253.050781 366.347656 253.121094 C 366.257812 253.175781 366.164062 253.214844 366.0625 253.230469 C 365.941406 253.269531 365.820312 253.308594 365.710938 253.351562 C 365.234375 253.519531 364.785156 253.699219 364.34375 253.878906 C 362.257812 254.871094 360.003906 255.316406 357.75 255.179688 C 359.585938 254.117188 356.808594 253.417969 360.910156 252.652344 C 358.863281 252.644531 357.03125 252.464844 356.996094 253.140625 C 356.773438 253.046875 356.535156 253.007812 356.296875 253.019531 C 355.269531 253.03125 353.621094 253.488281 352.109375 253.699219 C 351.386719 253.828125 350.648438 253.828125 349.925781 253.699219 C 349.765625 253.667969 349.609375 253.617188 349.460938 253.539062 C 349.367188 253.585938 349.277344 253.640625 349.191406 253.699219 C 348.332031 254.597656 347.179688 255.039062 346.023438 254.914062 C 345.96875 254.875 345.929688 254.8125 345.917969 254.738281 C 345.90625 254.667969 345.921875 254.59375 345.960938 254.535156 C 345.503906 254.941406 342.59375 255.171875 344.453125 256.175781 C 341.730469 254.851562 338.078125 254.714844 334.359375 254.773438 C 329.480469 254.84375 324.496094 255.261719 321.390625 253.769531 C 319.160156 253.925781 316.710938 254.097656 314.300781 254.226562 C 313.101562 254.277344 311.910156 254.335938 310.769531 254.386719 C 310.199219 254.40625 309.636719 254.425781 309.101562 254.445312 C 308.5 254.453125 307.921875 254.476562 307.367188 254.484375 C 307.539062 254.335938 307.539062 254.214844 307.636719 254.144531 C 307.847656 254.050781 308.078125 254.03125 308.300781 254.097656 C 308.144531 254.078125 308.042969 254.046875 307.851562 254.035156 C 307.660156 254.015625 307.472656 254.007812 307.289062 253.988281 C 306.925781 253.96875 306.589844 253.957031 306.28125 253.945312 C 305.75 253.945312 305.21875 253.976562 304.691406 254.046875 C 304.046875 254.117188 303.417969 254.34375 302.851562 254.703125 C 301.972656 255.546875 300.871094 256.023438 299.726562 256.058594 C 299.765625 257.128906 299.71875 258.203125 299.589844 259.261719 C 299.242188 260.128906 299.027344 260.328125 298.878906 260.039062 C 298.714844 259.449219 298.628906 258.828125 298.628906 258.207031 C 298.550781 256.625 298.578125 254.832031 298.320312 256.167969 C 296.921875 255.449219 297.015625 259.253906 297.257812 263.414062 C 297.378906 265.832031 297.535156 266.886719 297.558594 268.410156 C 297.621094 269.800781 297.453125 271.1875 297.066406 272.503906 L 296.902344 271.308594 C 295.945312 275.070312 297.964844 280.496094 297.765625 286.648438 C 297.765625 286.648438 297.515625 286.351562 297.34375 286.609375 C 298.769531 290.820312 299.242188 298.785156 299.640625 304.699219 C 298.542969 302.855469 299.0625 302.011719 297.949219 303.136719 C 298.101562 305.792969 299.734375 302.359375 300.046875 307.65625 C 299.449219 309.378906 298.921875 313.199219 297.730469 313.707031 L 297.664062 308.710938 C 296.125 311.269531 297.722656 315.171875 297.457031 317.808594 L 296.78125 317.46875 C 296.996094 325.125 298.691406 325.234375 298.570312 333.457031 L 299.078125 332.613281 C 300.761719 337.113281 298.136719 336.386719 299.390625 340.863281 L 297.679688 342.230469 C 298.09375 345.195312 299.328125 352.613281 299.648438 357.9375 C 298.386719 354.921875 297.742188 348.699219 296.988281 344.847656 C 296.980469 347.785156 297.117188 354.84375 297.957031 356.375 C 297.792969 355.191406 297.378906 353.695312 297.636719 352.523438 C 298.976562 356.125 299.632812 360.875 299.605469 366.738281 C 298.527344 366.398438 298.058594 367.914062 297.835938 370.261719 C 297.828125 370.410156 297.808594 370.5625 297.800781 370.71875 C 297.792969 370.9375 297.773438 371.167969 297.765625 371.398438 C 297.75 371.867188 297.730469 372.34375 297.707031 372.839844 C 297.6875 373.835938 297.664062 374.890625 297.636719 375.964844 C 297.59375 378.167969 297.550781 380.476562 297.507812 382.714844 C 301.453125 382.867188 305.078125 383.195312 307.1875 384.21875 L 307.894531 384.148438 L 308.335938 384.089844 L 309.179688 383.992188 C 309.742188 383.929688 310.304688 383.882812 310.863281 383.839844 C 311.988281 383.75 313.109375 383.722656 314.242188 383.710938 C 316.492188 383.703125 318.773438 383.8125 321.097656 383.960938 C 325.742188 384.257812 330.566406 384.707031 335.808594 384.585938 C 332.097656 381.632812 338.867188 384.507812 338.226562 381.460938 C 340.644531 381.273438 341.578125 381.324219 341.800781 381.511719 L 341.445312 381.421875 C 341.578125 381.460938 341.679688 381.492188 341.816406 381.53125 L 341.816406 381.523438 L 349.210938 383.332031 C 350.960938 384.21875 346.886719 384 347.109375 384.6875 C 352.457031 384.925781 349.355469 385.980469 352.886719 386.789062 C 352.160156 385.703125 354.742188 385.226562 357.792969 385.644531 L 353.5 384.238281 C 360.96875 382.617188 359.957031 386.796875 367.480469 385.183594 L 365.097656 386.152344 C 368.964844 385.582031 379.34375 386.171875 383.132812 383.722656 C 383.816406 384.070312 384.722656 384.90625 383.019531 385.125 C 392.25 385.492188 403.5625 382.527344 410.738281 384.03125 L 410.039062 384.777344 C 411.753906 384.558594 413.035156 383.375 415.191406 384.121094 C 415.078125 384.429688 414.492188 384.867188 415.296875 384.90625 C 416.203125 384.65625 419.863281 383.601562 422.152344 384.039062 L 420.199219 384.875 C 425.863281 385.492188 429.871094 384.527344 433.945312 383.59375 C 436.453125 382.964844 439 382.539062 441.5625 382.328125 C 441.542969 384.519531 448.625 385.234375 452.164062 385.582031 L 452.035156 385.890625 C 456.238281 385.980469 460.441406 385.746094 464.613281 385.183594 C 467.816406 384.777344 470.925781 384.257812 474.214844 383.832031 L 474.222656 383.832031 C 474.429688 383.800781 474.640625 383.773438 474.855469 383.742188 C 475.613281 383.640625 476.390625 383.550781 477.175781 383.464844 C 477.417969 383.433594 477.667969 383.402344 477.917969 383.375 C 478.457031 383.324219 479 383.273438 479.550781 383.222656 C 482.300781 384.089844 485.128906 384.550781 487.980469 384.597656 C 494.730469 384.976562 503.226562 384.667969 509.652344 385.554688 C 508.164062 385.15625 509.890625 383.839844 511.609375 383.621094 C 513.742188 384.039062 517.402344 382.339844 517.550781 383.78125 C 517.5625 383.890625 517.554688 384.003906 517.535156 384.109375 L 516.765625 384.070312 L 516.722656 384.070312 L 516.730469 384.082031 C 518.449219 386.042969 523.113281 385.523438 526.753906 385.574219 L 527.351562 382.945312 C 536.890625 386.769531 552.347656 381.542969 557.554688 384.964844 C 559.859375 384.308594 562.707031 384.320312 564.988281 383.660156 L 564.867188 385.066406 C 570.671875 385.492188 576.496094 385.558594 582.308594 385.265625 L 580.703125 386.28125 C 585.148438 386.371094 586.3125 382.207031 590.425781 382.128906 L 591.648438 384.230469 C 599.414062 384.199219 607.261719 386.050781 614.929688 384.140625 C 614.808594 384.449219 614.574219 385.054688 613.320312 385.144531 C 616.851562 385.195312 626.765625 386.480469 626.214844 383.949219 C 627.058594 385.375 634.347656 383.820312 638.308594 383.035156 L 637.660156 384.417969 C 639.433594 383.53125 640.339844 382.964844 641.425781 382.566406 C 642.042969 382.34375 642.675781 382.171875 643.316406 382.058594 C 643.714844 381.988281 644.09375 381.921875 644.636719 381.859375 C 645.292969 381.800781 646.035156 381.742188 646.875 381.671875 C 648.359375 381.839844 648.609375 382.605469 646.867188 382.496094 C 648.164062 382.695312 649.480469 382.628906 650.761719 382.296875 C 651.832031 381.90625 652.949219 381.699219 654.074219 381.691406 C 654.070312 380.691406 654.117188 379.6875 654.214844 378.695312 C 654.472656 379.847656 654.730469 381.074219 654.980469 382.367188 C 655.078125 380.238281 655 378.101562 654.75 375.988281 C 654.542969 374.710938 654.214844 373.765625 653.773438 372.003906 C 653.738281 371.765625 653.714844 371.507812 653.695312 371.238281 C 653.679688 370.988281 653.660156 370.742188 653.644531 370.472656 C 653.625 370.035156 653.617188 369.554688 653.625 369.078125 C 653.652344 368.085938 653.738281 367.097656 653.878906 366.121094 C 654.144531 364.199219 654.621094 362.566406 655.164062 362.230469 C 654.5 361.601562 653.609375 359.074219 653.921875 356.34375 C 654.335938 355.976562 654.59375 356.960938 654.714844 357.46875 C 655.535156 349.734375 653.316406 345.960938 654.5 340.644531 C 654.863281 340.527344 655.140625 340.179688 655.214844 339.75 C 655.1875 345.382812 655.128906 350.003906 655.050781 350.371094 C 656.148438 350.300781 656.347656 345.433594 657.867188 349.355469 C 657.027344 345.375 655.214844 338.566406 655.734375 333.726562 Z M 656.710938 323.421875 C 656.882812 325.078125 656.640625 325.625 656.390625 325.851562 C 656.371094 325.078125 656.328125 324.160156 656.242188 322.964844 C 656.199219 322.925781 656.148438 322.828125 656.097656 322.777344 C 656.34375 322.929688 656.554688 323.152344 656.710938 323.421875 Z M 607.285156 95.589844 C 607.433594 95.644531 607.570312 95.71875 607.699219 95.808594 L 605.871094 95.808594 C 606.3125 95.730469 606.777344 95.660156 607.285156 95.589844 Z M 607.285156 95.589844 "/>
<path style=" stroke:none;fill-rule:nonzero;fill:rgb(49.803922%,46.666667%,100%);fill-opacity:1;" d="M 439.167969 230.890625 C 439.113281 230.960938 439.035156 231.003906 438.953125 231.011719 C 439.019531 230.957031 439.09375 230.917969 439.167969 230.890625 Z M 439.167969 230.890625 "/>
<path style=" stroke:none;fill-rule:nonzero;fill:rgb(49.803922%,46.666667%,100%);fill-opacity:1;" d="M 416.203125 234.230469 C 416.269531 234.21875 416.335938 234.199219 416.402344 234.183594 C 416.332031 234.199219 416.265625 234.214844 416.203125 234.230469 Z M 416.203125 234.230469 "/>
<path style=" stroke:none;fill-rule:nonzero;fill:rgb(49.803922%,46.666667%,100%);fill-opacity:1;" d="M 655.113281 320.46875 C 655.070312 320.242188 655.042969 320.015625 655.027344 319.789062 C 654.917969 320.125 654.828125 320.445312 654.753906 320.769531 L 655.132812 321.351562 Z M 655.113281 320.46875 "/>
<path style=" stroke:none;fill-rule:nonzero;fill:rgb(49.803922%,46.666667%,100%);fill-opacity:1;" d="M 516.03125 148.75 C 516.0625 148.585938 516.121094 148.429688 516.203125 148.289062 C 516.144531 148.4375 516.105469 148.4375 516.058594 148.53125 Z M 516.03125 148.75 "/>
<path style=" stroke:none;fill-rule:nonzero;fill:rgb(49.803922%,46.666667%,100%);fill-opacity:1;" d="M 576.375 94.132812 C 576.761719 94.144531 577.203125 94.792969 577.121094 99.554688 L 577.378906 93.703125 L 579.285156 93.808594 C 577.746094 93.265625 575.207031 92.539062 578.722656 92.410156 C 577.511719 92.246094 576.585938 92.125 575.933594 92.035156 C 575.644531 94.84375 575.984375 94.144531 576.375 94.132812 Z M 576.375 94.132812 "/>
<path style=" stroke:none;fill-rule:nonzero;fill:rgb(49.803922%,46.666667%,100%);fill-opacity:1;" d="M 576.441406 118.492188 C 576.332031 117.378906 576.160156 117.347656 575.984375 117.476562 C 575.808594 117.621094 575.625 117.902344 575.496094 117.765625 C 575.921875 119.085938 576.027344 119.726562 576.441406 118.492188 Z M 576.441406 118.492188 "/>
<path style=" stroke:none;fill-rule:nonzero;fill:rgb(49.803922%,46.666667%,100%);fill-opacity:1;" d="M 492.378906 160.816406 L 492.679688 159.542969 C 490.375 159.726562 492.65625 160.035156 492.378906 160.816406 Z M 492.378906 160.816406 "/>
<path style=" stroke:none;fill-rule:nonzero;fill:rgb(49.803922%,46.666667%,100%);fill-opacity:1;" d="M 452.515625 158.519531 L 452.707031 158.503906 L 453.0625 158.464844 L 454.480469 158.328125 L 455.484375 158.144531 L 453.566406 158.375 L 452.605469 158.492188 L 451.035156 158.605469 L 452.21875 158.535156 Z M 452.515625 158.519531 "/>
<path style=" stroke:none;fill-rule:nonzero;fill:rgb(49.803922%,46.666667%,100%);fill-opacity:1;" d="M 326.234375 252.246094 L 326.929688 253.816406 C 328.488281 253.535156 328.8125 251.773438 326.234375 252.246094 Z M 326.234375 252.246094 "/>
<path style=" stroke:none;fill-rule:nonzero;fill:rgb(49.803922%,46.666667%,100%);fill-opacity:1;" d="M 297.808594 332.527344 C 296.964844 334.332031 296.804688 336.453125 297.359375 338.398438 C 297.453125 336.058594 297.980469 333.722656 297.808594 332.527344 Z M 297.808594 332.527344 "/>
<path style=" stroke:none;fill-rule:nonzero;fill:rgb(49.803922%,46.666667%,100%);fill-opacity:1;" d="M 530.070312 385.449219 L 533.492188 385.011719 L 531.886719 384.925781 Z M 530.070312 385.449219 "/>
<path style=" stroke:none;fill-rule:nonzero;fill:rgb(100%,100%,100%);fill-opacity:1;" d="M 546.863281 256.945312 C 546.65625 269.019531 545.191406 281.027344 542.503906 292.703125 C 532.039062 337.300781 503.40625 369.753906 487.980469 384.597656 C 485.128906 384.550781 482.300781 384.089844 479.550781 383.222656 C 479 383.273438 478.457031 383.324219 477.917969 383.375 C 477.667969 383.402344 477.417969 383.433594 477.175781 383.464844 C 476.390625 383.550781 475.613281 383.640625 474.855469 383.742188 C 474.640625 383.773438 474.429688 383.800781 474.222656 383.832031 L 474.214844 383.832031 C 469.226562 368.78125 465.644531 353.160156 463.535156 337.230469 L 463.527344 337.222656 L 463.527344 337.210938 C 460.859375 316.785156 460.425781 292.8125 466.046875 268.859375 C 468.457031 258.722656 471.785156 248.910156 475.984375 239.582031 C 496.050781 194.683594 530.753906 167.933594 530.753906 167.933594 C 530.753906 167.933594 547.898438 208.542969 546.863281 256.945312 Z M 546.863281 256.945312 "/>
<path style=" stroke:none;fill-rule:nonzero;fill:rgb(100%,100%,100%);fill-opacity:1;" d="M 441.300781 206.800781 C 441.277344 207.199219 441.25 207.566406 441.207031 208.015625 C 441.121094 207.609375 441.15625 207.183594 441.300781 206.800781 Z M 441.300781 206.800781 "/>
<path style=" stroke:none;fill-rule:nonzero;fill:rgb(100%,100%,100%);fill-opacity:1;" d="M 416.402344 234.1875 C 416.710938 234.117188 417.015625 234.015625 417.308594 233.878906 C 417.9375 234.066406 417.074219 234.058594 416.402344 234.1875 Z M 416.402344 234.1875 "/>
<path style=" stroke:none;fill-rule:nonzero;fill:rgb(100%,100%,100%);fill-opacity:1;" d="M 417.601562 233.101562 L 418.992188 233.28125 C 418.523438 233.265625 418.058594 233.203125 417.601562 233.101562 Z M 417.601562 233.101562 "/>
<path style=" stroke:none;fill-rule:nonzero;fill:rgb(100%,100%,100%);fill-opacity:1;" d="M 438.367188 230.484375 C 438.320312 230.46875 438.269531 230.457031 438.21875 230.453125 C 438.347656 230.433594 438.480469 230.402344 438.582031 230.394531 C 438.597656 230.375 438.609375 230.363281 438.617188 230.363281 C 438.625 230.363281 438.625 230.375 438.609375 230.394531 C 438.609375 230.402344 438.597656 230.414062 438.589844 230.421875 C 438.589844 230.441406 438.460938 230.464844 438.367188 230.484375 Z M 438.367188 230.484375 "/>
<path style=" stroke:none;fill-rule:nonzero;fill:rgb(100%,100%,100%);fill-opacity:1;" d="M 439.167969 230.890625 C 439.113281 230.960938 439.035156 231.003906 438.953125 231.011719 C 439.019531 230.957031 439.09375 230.917969 439.167969 230.890625 Z M 439.167969 230.890625 "/>
<path style=" stroke:none;fill-rule:nonzero;fill:rgb(100%,100%,100%);fill-opacity:1;" d="M 488.472656 337.152344 C 488.472656 337.171875 488.460938 337.191406 488.460938 337.210938 C 486.375 352.984375 482.839844 368.460938 477.917969 383.375 C 477.667969 383.402344 477.417969 383.433594 477.175781 383.464844 C 476.390625 383.550781 475.613281 383.640625 474.855469 383.742188 C 474.640625 383.773438 474.429688 383.800781 474.222656 383.832031 L 474.214844 383.832031 C 470.925781 384.257812 467.816406 384.777344 464.613281 385.183594 C 449.339844 370.621094 420.085938 337.898438 409.492188 292.703125 C 406.796875 281.023438 405.332031 269.015625 405.125 256.933594 C 404.96875 249.039062 405.253906 241.140625 405.980469 233.289062 C 409.804688 232.433594 413.292969 234.742188 416.203125 234.226562 C 415.890625 234.316406 415.675781 234.433594 415.753906 234.652344 C 418.566406 234.375 420.589844 234.496094 421.410156 233.609375 L 418.992188 233.28125 C 421.113281 233.359375 421.460938 232.164062 425.511719 232.851562 C 427.839844 232.175781 429.171875 230.722656 426.625 230.703125 C 427.652344 230.511719 429.914062 231.308594 429.117188 232.183594 C 433.574219 232.214844 433.238281 230.632812 434.808594 230.203125 L 436.976562 230.203125 C 437.339844 230.265625 437.753906 230.34375 438.21875 230.453125 C 437.804688 230.542969 437.363281 230.691406 437.589844 230.871094 C 437.941406 230.910156 438.28125 230.949219 438.609375 230.980469 C 438.679688 231.011719 438.757812 231.027344 438.832031 231.03125 C 438.875 231.03125 438.914062 231.023438 438.953125 231.011719 C 438.695312 231.238281 438.746094 231.699219 438.894531 232.105469 C 438.972656 232.34375 439.058594 232.574219 438.9375 232.691406 C 438.867188 232.761719 438.78125 232.800781 438.546875 232.800781 C 438.117188 232.8125 437.539062 232.792969 436.734375 232.722656 C 436.984375 233.140625 437.382812 233.402344 437.824219 233.441406 C 438.089844 233.496094 438.363281 233.53125 438.632812 233.550781 C 438.808594 233.558594 438.988281 233.558594 439.167969 233.550781 C 439.890625 233.414062 440.628906 233.445312 441.335938 233.648438 C 441.847656 233.121094 441.3125 232.554688 440.863281 232.027344 C 440.453125 231.613281 440.09375 231.144531 439.789062 230.621094 C 439.820312 230.664062 439.855469 230.699219 439.894531 230.730469 C 440.230469 231.089844 440.238281 230.800781 440.414062 230.511719 C 440.171875 230.441406 439.9375 230.335938 439.714844 230.203125 L 440.34375 230.203125 L 440.34375 228.613281 C 440.371094 228.453125 440.386719 228.28125 440.414062 228.113281 C 440.808594 225.53125 440.804688 222.886719 440.394531 220.308594 C 440.808594 221.8125 441.640625 224.796875 442.164062 221.003906 C 441.519531 214.804688 442.597656 219.5625 443.382812 216.058594 C 443.160156 209.894531 441.542969 214.984375 442.183594 205.882812 C 442.191406 204.898438 441.585938 205.8125 441.300781 206.800781 C 441.769531 200.976562 441.164062 197.632812 441.707031 192.253906 C 441.457031 194.277344 441.136719 195.320312 440.714844 192.285156 C 441.328125 193.390625 441.464844 190.273438 441.699219 187.597656 C 441.898438 187.816406 442.105469 188.042969 442.3125 188.273438 C 442.613281 188.613281 442.925781 188.960938 443.226562 189.308594 C 453.984375 201.484375 466.601562 218.527344 475.984375 239.582031 C 475.988281 239.582031 475.992188 239.582031 475.992188 239.585938 C 475.992188 239.585938 475.996094 239.589844 475.996094 239.59375 C 480.203125 248.914062 483.535156 258.722656 485.941406 268.859375 C 491.554688 292.792969 491.128906 316.722656 488.472656 337.152344 Z M 488.472656 337.152344 "/>
<path style=" stroke:none;fill-rule:nonzero;fill:rgb(24.705882%,23.921569%,33.72549%);fill-opacity:1;" d="M 368.609375 248.421875 C 368.492188 248.757812 368.308594 249.0625 368.074219 249.308594 C 368.335938 248.652344 368.480469 248.453125 368.609375 248.421875 Z M 368.609375 248.421875 "/>
<path style=" stroke:none;fill-rule:nonzero;fill:rgb(24.705882%,23.921569%,33.72549%);fill-opacity:1;" d="M 346.03125 254.425781 C 346.027344 254.472656 346 254.515625 345.960938 254.535156 C 345.996094 254.476562 346.03125 254.425781 346.03125 254.425781 Z M 346.03125 254.425781 "/>
<path style=" stroke:none;fill-rule:nonzero;fill:rgb(24.705882%,23.921569%,33.72549%);fill-opacity:1;" d="M 474.855469 383.742188 C 474.640625 383.773438 474.429688 383.800781 474.222656 383.832031 L 474.214844 383.832031 C 470.925781 384.257812 467.816406 384.777344 464.613281 385.183594 C 460.441406 385.746094 456.238281 385.980469 452.035156 385.890625 L 452.164062 385.582031 C 448.625 385.234375 441.542969 384.519531 441.5625 382.328125 C 439 382.539062 436.453125 382.964844 433.945312 383.59375 C 415.269531 376.585938 393.519531 364.71875 375.726562 344.746094 C 350.640625 316.605469 339.324219 279.003906 334.359375 254.773438 C 338.078125 254.714844 341.730469 254.851562 344.453125 256.175781 C 342.59375 255.171875 345.503906 254.941406 345.960938 254.535156 C 345.921875 254.59375 345.90625 254.667969 345.917969 254.738281 C 345.929688 254.8125 345.96875 254.875 346.023438 254.914062 C 347.179688 255.039062 348.332031 254.597656 349.191406 253.699219 L 356.296875 253.699219 L 356.296875 253.019531 C 356.535156 253.007812 356.773438 253.046875 356.996094 253.140625 C 357.03125 252.464844 358.863281 252.644531 360.910156 252.652344 C 356.808594 253.417969 359.585938 254.117188 357.75 255.179688 C 360.003906 255.316406 362.257812 254.871094 364.34375 253.878906 C 364.785156 253.699219 365.234375 253.519531 365.710938 253.351562 C 365.820312 253.308594 365.941406 253.269531 366.0625 253.230469 C 366.164062 253.214844 366.257812 253.175781 366.347656 253.121094 C 366.460938 253.050781 366.574219 252.980469 366.683594 252.921875 C 367.175781 252.65625 367.726562 252.582031 368.257812 252.710938 C 368.761719 253.007812 369.28125 253.269531 369.808594 253.5 C 369.972656 253.390625 370.121094 253.261719 370.25 253.109375 C 369.617188 252.355469 369.191406 251.398438 369.035156 250.363281 C 368.972656 249.984375 368.945312 249.667969 368.894531 249.40625 C 368.84375 248.78125 368.765625 248.382812 368.609375 248.421875 C 369.136719 247.167969 369.449219 245.324219 370.300781 245.605469 L 370.269531 245.335938 L 370.242188 244.949219 C 370.234375 244.679688 370.214844 244.410156 370.207031 244.132812 C 370.191406 243.574219 370.183594 243.007812 370.183594 242.429688 C 370.191406 241.453125 370.214844 240.476562 370.234375 239.542969 C 382.390625 243.820312 394.09375 249.652344 405.125 256.933594 C 414.503906 263.132812 423.183594 270.648438 430.96875 279.300781 C 446.542969 296.785156 456.808594 317.910156 463.527344 337.210938 L 463.527344 337.222656 L 463.535156 337.230469 C 468.742188 352.222656 472.535156 367.816406 474.855469 383.742188 Z M 474.855469 383.742188 "/>
<path style=" stroke:none;fill-rule:nonzero;fill:rgb(24.705882%,23.921569%,33.72549%);fill-opacity:1;" d="M 516.722656 384.070312 L 516.765625 384.070312 C 516.753906 384.078125 516.742188 384.082031 516.730469 384.082031 Z M 516.722656 384.070312 "/>
<path style=" stroke:none;fill-rule:nonzero;fill:rgb(24.705882%,23.921569%,33.72549%);fill-opacity:1;" d="M 621.292969 230.492188 C 621.292969 230.492188 616.386719 299.71875 576.273438 344.746094 C 558.3125 364.90625 536.339844 376.804688 517.550781 383.78125 C 517.402344 382.339844 513.742188 384.039062 511.609375 383.621094 C 509.890625 383.839844 508.164062 385.15625 509.652344 385.554688 C 503.226562 384.667969 494.730469 384.976562 487.980469 384.597656 C 485.128906 384.550781 482.300781 384.089844 479.550781 383.222656 C 479 383.273438 478.457031 383.324219 477.917969 383.375 C 477.667969 383.402344 477.417969 383.433594 477.175781 383.464844 C 479.503906 367.605469 483.289062 352.082031 488.472656 337.152344 C 495.207031 317.867188 505.472656 296.765625 521.023438 279.3125 C 528.800781 270.65625 537.484375 263.140625 546.863281 256.945312 C 582.800781 232.910156 621.292969 230.492188 621.292969 230.492188 Z M 621.292969 230.492188 "/>
<path style=" stroke:none;fill-rule:nonzero;fill:rgb(62.745098%,38.039216%,41.568627%);fill-opacity:1;" d="M 56.851562 190.539062 C 56.851562 190.539062 44.824219 218.269531 26.238281 224.574219 C 7.652344 230.875 71.0625 224.574219 71.0625 224.574219 C 71.0625 224.574219 67.78125 204.40625 72.15625 201.882812 C 76.527344 199.363281 56.851562 190.539062 56.851562 190.539062 Z M 56.851562 190.539062 "/>
<path style=" stroke:none;fill-rule:nonzero;fill:rgb(18.431373%,18.039216%,25.490196%);fill-opacity:1;" d="M 37.417969 142.898438 C 36.765625 136.324219 39.882812 130.515625 44.382812 129.921875 C 44.433594 129.914062 44.480469 129.917969 44.535156 129.914062 C 43.972656 129.816406 43.398438 129.808594 42.835938 129.882812 C 38.335938 130.476562 35.21875 136.285156 35.875 142.855469 C 36.519531 149.351562 40.613281 154.152344 45.050781 153.683594 C 41.242188 153.046875 37.988281 148.628906 37.417969 142.898438 Z M 37.417969 142.898438 "/>
<path style=" stroke:none;fill-rule:nonzero;fill:rgb(18.431373%,18.039216%,25.490196%);fill-opacity:1;" d="M 41.453125 151.804688 C 36.019531 149.683594 32.792969 143.957031 34.246094 139.011719 C 34.261719 138.953125 34.285156 138.902344 34.300781 138.847656 C 33.988281 139.394531 33.734375 139.984375 33.554688 140.605469 C 32.101562 145.550781 35.328125 151.277344 40.761719 153.398438 C 46.132812 155.496094 51.640625 153.277344 53.167969 148.449219 C 51.042969 152.148438 46.191406 153.65625 41.453125 151.804688 Z M 41.453125 151.804688 "/>
<path style=" stroke:none;fill-rule:nonzero;fill:rgb(62.745098%,38.039216%,41.568627%);fill-opacity:1;" d="M 3.859375 273.285156 L 5.464844 326.675781 L 30.613281 394.742188 C 30.613281 394.742188 24.050781 430.035156 37.171875 428.777344 C 50.289062 427.515625 38.265625 393.480469 38.265625 393.480469 L 26.238281 321.632812 L 24.050781 262.386719 Z M 3.859375 273.285156 "/>
<path style=" stroke:none;fill-rule:nonzero;fill:rgb(62.745098%,38.039216%,41.568627%);fill-opacity:1;" d="M 98.394531 181.714844 C 98.394531 197.03125 87.625 209.445312 74.34375 209.445312 C 61.058594 209.445312 50.289062 197.03125 50.289062 181.714844 C 50.289062 166.398438 61.058594 153.984375 74.34375 153.984375 C 87.625 153.984375 98.394531 166.398438 98.394531 181.714844 Z M 98.394531 181.714844 "/>
<path style=" stroke:none;fill-rule:nonzero;fill:rgb(81.176471%,80%,87.843137%);fill-opacity:1;" d="M 94.019531 229.613281 L 70.316406 218.695312 C 70.316406 218.695312 65.597656 219.53125 52.476562 220.792969 C 39.359375 222.050781 33.53125 220.863281 33.53125 220.863281 C 33.53125 220.863281 5.464844 232.136719 6.558594 238.4375 C 7.652344 244.742188 19.679688 344.320312 25.144531 339.28125 C 30.613281 334.238281 33.890625 332.976562 33.890625 332.976562 L 94.019531 326.675781 Z M 94.019531 229.613281 "/>
<path style=" stroke:none;fill-rule:nonzero;fill:rgb(81.176471%,80%,87.843137%);fill-opacity:1;" d="M 10.933594 235.917969 L 7.375 235.917969 C 7.375 235.917969 3.28125 238.4375 3.28125 246 C 3.28125 253.566406 0 276.253906 0 276.253906 L 17.492188 276.253906 Z M 10.933594 235.917969 "/>
<path style=" stroke:none;fill-rule:nonzero;fill:rgb(18.431373%,18.039216%,25.490196%);fill-opacity:1;" d="M 43.183594 247.890625 L 29.980469 223.296875 C 29.367188 222.15625 28.230469 221.527344 27.070312 221.695312 L 23.628906 222.191406 C 22.773438 222.316406 22.003906 222.859375 21.523438 223.6875 C 21.039062 224.511719 20.894531 225.539062 21.117188 226.5 L 27.878906 255.457031 C 27.878906 255.457031 38.570312 306.605469 28.304688 333.972656 L 27.878906 346.210938 C 27.878906 346.210938 18.039062 384.027344 20.226562 413.019531 C 22.410156 442.011719 23.503906 467.222656 23.503906 467.222656 C 23.503906 467.222656 18.039062 486.128906 20.226562 492.433594 C 20.882812 494.324219 20.75 497.121094 20.246094 500.113281 C 17.164062 518.371094 16.367188 537.042969 16.800781 555.636719 L 16.945312 561.761719 C 16.945312 561.761719 9.292969 569.324219 15.851562 570.585938 C 22.410156 571.84375 43.183594 574.367188 43.183594 574.367188 C 43.183594 574.367188 47.558594 565.542969 45.371094 564.28125 L 51.929688 522.683594 C 51.929688 522.683594 62.863281 505.039062 61.769531 493.691406 C 61.769531 493.691406 65.050781 474.785156 61.769531 465.960938 L 62.863281 410.5 L 67.234375 477.304688 L 60.675781 560.5 C 60.675781 560.5 51.929688 568.0625 57.398438 570.585938 C 62.863281 573.105469 96.753906 585.710938 96.753906 579.410156 C 96.753906 573.105469 94.566406 570.585938 94.566406 570.585938 L 108.78125 400.414062 L 101.128906 329.824219 C 101.128906 329.824219 49.742188 324.785156 54.117188 257.976562 C 54.117188 257.976562 66.6875 227.875 79.097656 222.191406 C 79.386719 222.070312 79.574219 221.746094 79.5625 221.390625 C 79.550781 221.035156 79.34375 220.726562 79.046875 220.628906 L 74.007812 218.96875 C 73.871094 218.921875 73.722656 218.925781 73.589844 218.980469 C 71.402344 219.832031 52.449219 227.71875 43.183594 247.890625 Z M 43.183594 247.890625 "/>
<path style=" stroke:none;fill-rule:nonzero;fill:rgb(18.431373%,18.039216%,25.490196%);fill-opacity:1;" d="M 68.328125 569.324219 L 68.15625 571.136719 C 66.980469 582.683594 63.722656 593.820312 58.59375 603.832031 C 56.148438 608.683594 54.273438 614.164062 55.210938 618.484375 C 57.398438 628.566406 56.304688 632.351562 56.304688 632.351562 L 73.796875 632.351562 L 73.796875 628.566406 L 83.5625 631.640625 C 85.738281 632.363281 88.058594 632.28125 90.195312 631.40625 C 92.382812 630.460938 94.566406 628.566406 94.566406 624.785156 C 94.566406 621.636719 92.480469 618.703125 90.042969 616.355469 C 84.910156 611.496094 81.1875 604.941406 79.382812 597.574219 L 79.261719 597.054688 L 85.820312 569.324219 Z M 68.328125 569.324219 "/>
<path style=" stroke:none;fill-rule:nonzero;fill:rgb(18.431373%,18.039216%,25.490196%);fill-opacity:1;" d="M 22.957031 569.953125 L 22.785156 571.765625 C 21.609375 583.3125 18.351562 594.449219 13.222656 604.460938 C 10.777344 609.3125 8.902344 614.792969 9.839844 619.113281 C 12.027344 629.199219 10.933594 632.980469 10.933594 632.980469 L 28.425781 632.980469 L 28.425781 629.199219 L 38.191406 632.269531 C 40.367188 632.996094 42.6875 632.914062 44.824219 632.035156 C 47.011719 631.089844 49.195312 629.199219 49.195312 625.417969 C 49.195312 622.265625 47.109375 619.332031 44.671875 616.984375 C 39.539062 612.128906 35.816406 605.574219 34.015625 598.203125 L 33.890625 597.6875 L 40.449219 569.953125 Z M 22.957031 569.953125 "/>
<path style=" stroke:none;fill-rule:nonzero;fill:rgb(18.431373%,18.039216%,25.490196%);fill-opacity:1;" d="M 79.195312 186.394531 C 79.195312 186.394531 96.425781 174.917969 103.097656 174.222656 C 103.097656 174.222656 105.042969 169.179688 102.945312 164.328125 C 102.945312 164.328125 101.929688 148.761719 85.078125 149.367188 C 85.078125 149.367188 65.171875 136.933594 58.488281 142.007812 C 51.808594 147.085938 36.929688 171.441406 43.214844 185.996094 C 43.214844 185.996094 35.949219 190.210938 35.601562 187.941406 C 35.257812 185.675781 29.859375 191.769531 36.984375 197.019531 C 36.984375 197.019531 27.011719 208.660156 36.707031 215.945312 C 36.707031 215.945312 36.261719 205.621094 41.886719 202.5 C 47.511719 199.378906 42.589844 202.65625 42.589844 202.65625 C 42.589844 202.65625 32.960938 216.566406 47.339844 221.984375 C 47.339844 221.984375 41.976562 214.9375 47.371094 208.84375 C 47.371094 208.84375 45.699219 223.074219 55.644531 224.574219 C 55.644531 224.574219 50.515625 216.121094 53.214844 213.074219 C 53.214844 213.074219 54.359375 223.554688 59.972656 224.8125 L 64.183594 225.757812 L 65.609375 217.3125 C 65.609375 217.3125 61.605469 228.101562 70.964844 228.738281 C 70.964844 228.738281 66.4375 212.386719 72.429688 202.773438 C 78.421875 193.160156 79.195312 186.394531 79.195312 186.394531 Z M 79.195312 186.394531 "/>
<path style=" stroke:none;fill-rule:nonzero;fill:rgb(18.431373%,18.039216%,25.490196%);fill-opacity:1;" d="M 52.1875 135.613281 C 48.578125 132.460938 42.84375 134.179688 39.382812 139.453125 C 35.917969 144.726562 36.035156 151.554688 39.648438 154.707031 C 43.257812 157.859375 48.992188 156.140625 52.453125 150.867188 C 55.917969 145.597656 55.796875 138.765625 52.1875 135.613281 Z M 52.1875 135.613281 "/>
<path style=" stroke:none;fill-rule:nonzero;fill:rgb(10.196078%,73.72549%,61.176471%);fill-opacity:1;" d="M 54.84375 144.554688 C 52.667969 145.507812 50.777344 147.15625 49.390625 149.3125 C 48.160156 151.160156 47.339844 153.324219 47 155.625 C 49.175781 154.671875 51.070312 153.023438 52.453125 150.867188 C 53.6875 149.019531 54.507812 146.855469 54.84375 144.554688 Z M 54.84375 144.554688 "/>
<path style=" stroke:none;fill-rule:nonzero;fill:rgb(81.176471%,80%,87.843137%);fill-opacity:1;" d="M 138.316406 384.671875 L 136.925781 382.535156 L 147.007812 373.828125 C 149.441406 371.71875 150.714844 368.269531 150.34375 364.785156 L 145.351562 318.289062 C 144.621094 311.417969 147.128906 304.621094 151.929688 300.464844 L 162.914062 290.972656 C 167.253906 287.230469 173.402344 288.246094 176.65625 293.242188 L 179.203125 297.15625 L 177.347656 298.757812 L 174.804688 294.84375 C 172.316406 291.023438 167.621094 290.25 164.304688 293.109375 L 153.316406 302.601562 C 149.179688 306.183594 147.019531 312.039062 147.648438 317.960938 L 152.640625 364.457031 C 153.113281 368.890625 151.496094 373.28125 148.394531 375.964844 Z M 138.316406 384.671875 "/>
<path style=" stroke:none;fill-rule:nonzero;fill:rgb(81.176471%,80%,87.843137%);fill-opacity:1;" d="M 141.910156 388.613281 L 150.128906 376.136719 L 147.351562 371.863281 L 135.027344 378.027344 L 81.238281 420.882812 L 90.757812 435.53125 Z M 141.910156 388.613281 "/>
<path style=" stroke:none;fill-rule:nonzero;fill:rgb(90.196078%,90.196078%,90.196078%);fill-opacity:1;" d="M 170.277344 299.386719 L 180.652344 290.421875 C 183.488281 287.96875 187.511719 288.636719 189.636719 291.90625 L 237.785156 365.984375 C 239.910156 369.253906 239.332031 373.894531 236.496094 376.34375 L 226.121094 385.308594 C 223.28125 387.761719 219.261719 387.097656 217.136719 383.824219 L 168.988281 309.746094 C 166.863281 306.476562 167.4375 301.839844 170.277344 299.386719 Z M 170.277344 299.386719 "/>
<use xlink:href="#surface5" mask="url(#mask0)"/>
<path style=" stroke:none;fill-rule:nonzero;fill:rgb(49.803922%,46.666667%,100%);fill-opacity:1;" d="M 206.996094 317.082031 C 206.90625 316.980469 206.828125 316.894531 206.828125 316.941406 C 206.914062 317.0625 206.972656 317.09375 206.996094 317.082031 Z M 206.996094 317.082031 "/>
<path style=" stroke:none;fill-rule:nonzero;fill:rgb(49.803922%,46.666667%,100%);fill-opacity:1;" d="M 205.363281 314.109375 C 205.355469 314.039062 205.320312 313.972656 205.273438 313.929688 Z M 205.363281 314.109375 "/>
<path style=" stroke:none;fill-rule:nonzero;fill:rgb(49.803922%,46.666667%,100%);fill-opacity:1;" d="M 217.101562 332.882812 C 217.007812 332.917969 217.191406 333.15625 217.3125 333.382812 Z M 217.101562 332.882812 "/>
<path style=" stroke:none;fill-rule:nonzero;fill:rgb(49.803922%,46.666667%,100%);fill-opacity:1;" d="M 222.179688 340.417969 L 222.269531 340.550781 C 222.324219 340.566406 222.378906 340.578125 222.433594 340.578125 Z M 222.179688 340.417969 "/>
<path style=" stroke:none;fill-rule:nonzero;fill:rgb(49.803922%,46.666667%,100%);fill-opacity:1;" d="M 225.390625 345.933594 C 225.507812 345.933594 225.621094 345.992188 225.703125 346.089844 C 225.753906 346.042969 225.789062 345.980469 225.808594 345.914062 C 225.734375 345.78125 225.507812 345.90625 225.390625 345.933594 Z M 225.390625 345.933594 "/>
<path style=" stroke:none;fill-rule:nonzero;fill:rgb(49.803922%,46.666667%,100%);fill-opacity:1;" d="M 235.347656 361.882812 L 235.296875 361.980469 C 235.328125 362.019531 235.359375 362.058594 235.398438 362.09375 Z M 235.347656 361.882812 "/>
<path style=" stroke:none;fill-rule:nonzero;fill:rgb(49.803922%,46.666667%,100%);fill-opacity:1;" d="M 202.210938 308.609375 L 202.222656 308.632812 C 202.332031 308.75 202.277344 308.675781 202.210938 308.609375 Z M 202.210938 308.609375 "/>
<path style=" stroke:none;fill-rule:nonzero;fill:rgb(49.803922%,46.666667%,100%);fill-opacity:1;" d="M 173.058594 319.574219 C 172.894531 318.890625 173.847656 320.242188 173.527344 319.273438 C 173.496094 319.414062 172.746094 318.8125 173.058594 319.574219 Z M 173.058594 319.574219 "/>
<path style=" stroke:none;fill-rule:nonzero;fill:rgb(49.803922%,46.666667%,100%);fill-opacity:1;" d="M 194.449219 296.953125 C 194.433594 297.015625 194.429688 297.082031 194.441406 297.148438 C 194.457031 297.128906 194.464844 297.078125 194.449219 296.953125 Z M 194.449219 296.953125 "/>
<path style=" stroke:none;fill-rule:nonzero;fill:rgb(49.803922%,46.666667%,100%);fill-opacity:1;" d="M 190.378906 293.582031 C 190.238281 293.683594 190.117188 293.8125 190.015625 293.960938 C 190.039062 293.957031 190.058594 293.945312 190.082031 293.933594 C 190.152344 293.789062 190.253906 293.667969 190.378906 293.582031 Z M 190.378906 293.582031 "/>
<path style=" stroke:none;fill-rule:nonzero;fill:rgb(49.803922%,46.666667%,100%);fill-opacity:1;" d="M 186.339844 297.96875 C 186.371094 297.960938 186.40625 297.953125 186.441406 297.9375 L 186.554688 297.804688 Z M 186.339844 297.96875 "/>
<path style=" stroke:none;fill-rule:nonzero;fill:rgb(10.196078%,73.72549%,61.176471%);fill-opacity:1;" d="M 235.585938 362.113281 C 235.449219 362.304688 235.179688 362.554688 235.058594 362.472656 L 235.296875 361.980469 C 235.28125 361.957031 235.265625 361.929688 235.25 361.90625 C 235.265625 361.882812 235.28125 361.859375 235.296875 361.835938 L 231.867188 356.5625 L 231.957031 356.570312 L 231.800781 356.460938 L 231.363281 355.789062 C 231.421875 355.777344 231.492188 355.796875 231.59375 355.914062 C 231.417969 355.292969 231.203125 355.566406 231.089844 355 C 231.085938 354.933594 231.113281 354.941406 231.152344 354.972656 L 230.75 354.566406 C 230.875 354.609375 230.90625 354.308594 231.058594 354.640625 C 230.660156 353.625 229.925781 353.429688 229.9375 352.910156 L 230 352.96875 C 229.34375 352.132812 229.503906 352.585938 229.277344 352.582031 L 228.914062 352.019531 L 229.007812 351.285156 L 228.714844 351.355469 C 228.640625 351.222656 228.496094 350.960938 228.613281 350.933594 C 228.164062 350.597656 228.570312 351.09375 228.257812 350.945312 C 228.066406 350.175781 227.09375 349.375 227.347656 348.945312 C 227.046875 348.871094 227.59375 349.625 227.066406 349.085938 C 227.316406 348.582031 226.523438 348.402344 226.335938 347.707031 C 226.636719 347.710938 226.871094 348.316406 226.6875 347.621094 C 226.148438 347.570312 226.066406 346.496094 225.703125 346.089844 C 225.433594 346.289062 224.945312 345.179688 224.359375 344.480469 C 224.007812 343.660156 223.613281 342.867188 223.179688 342.101562 L 223.234375 342.085938 C 222.886719 342.171875 222.453125 341.386719 222.046875 340.894531 C 222.214844 340.78125 222.339844 340.824219 222.601562 341.058594 L 222.269531 340.550781 C 222.046875 340.460938 221.855469 340.292969 221.714844 340.078125 L 221.992188 340.039062 C 221.40625 339.394531 220.886719 338.671875 220.445312 337.890625 C 220.300781 337.964844 220.320312 338.445312 220.128906 338.5 L 219.828125 338.039062 C 219.921875 337.996094 220.023438 338.027344 220.089844 338.113281 C 220.023438 338.042969 219.824219 337.902344 219.761719 337.707031 L 220.167969 337.933594 C 219.980469 337.472656 219.894531 337.84375 219.703125 337.511719 C 219.847656 337.398438 219.652344 337.191406 219.792969 337.144531 C 219.855469 337.210938 219.914062 337.46875 220.046875 337.542969 C 219.84375 337.210938 219.710938 336.828125 219.65625 336.425781 C 219.59375 336.527344 219.464844 336.589844 219.277344 336.34375 C 218.828125 335.675781 219.296875 335.964844 219.109375 335.511719 C 218.90625 335.429688 218.726562 334.914062 218.511719 335.082031 C 218.382812 334.882812 218.457031 334.761719 218.464844 334.636719 C 218.144531 334.367188 217.375 333.023438 217.410156 333.609375 L 217.453125 333.710938 L 217.40625 333.664062 C 216.457031 332.695312 215.976562 331.179688 215.148438 330.117188 L 215.21875 330.058594 C 214.761719 329.40625 214.261719 328.796875 213.722656 328.230469 C 213.59375 328.03125 213.542969 327.648438 213.683594 327.660156 C 213.308594 327.304688 213.007812 326.855469 212.804688 326.347656 C 213.265625 326.765625 212.792969 326.074219 213.242188 326.804688 C 212.863281 326.078125 212.875 325.828125 212.210938 325.269531 C 212.550781 325.363281 212.109375 324.566406 211.84375 324.292969 L 212.023438 324.875 C 211.789062 324.558594 211.574219 324.226562 211.382812 323.875 L 211.730469 323.84375 C 211.117188 322.21875 209.625 321.773438 209.421875 320.308594 C 209.019531 320.085938 209.792969 321.160156 209.386719 321 C 209.140625 320.414062 208.941406 319.808594 208.785156 319.183594 C 208.347656 318.203125 207.914062 318.667969 207.410156 317.683594 C 207.402344 317.871094 207.25 318.175781 206.730469 317.5625 C 206.347656 316.898438 206.574219 316.476562 206.902344 316.820312 C 207.007812 316.964844 207.027344 317.0625 206.996094 317.082031 C 207.160156 317.261719 207.371094 317.5 207.296875 317.167969 L 207.160156 317.15625 C 207.042969 316.769531 206.464844 315.902344 206.734375 315.988281 C 206.34375 315.578125 206.464844 315.902344 206.652344 316.296875 C 206.242188 315.375 205.828125 315.019531 205.363281 314.109375 C 205.40625 314.28125 205.386719 314.488281 205.300781 314.355469 C 204.605469 313.035156 204.789062 313.953125 204.210938 313.148438 C 204.03125 312.566406 204.625 313.054688 203.972656 312.308594 C 203.726562 311.722656 204.125 312.007812 204.324219 312.152344 C 203.855469 311.582031 203.488281 310.90625 203.25 310.167969 L 203.578125 310.511719 C 203.410156 310.332031 203.257812 310.128906 203.125 309.90625 L 203.105469 310.28125 C 202.980469 310.019531 202.851562 309.820312 202.925781 309.765625 C 202.65625 309.613281 202.765625 310.191406 202.300781 309.835938 C 202.183594 309.449219 201.585938 308.957031 201.738281 308.65625 C 202.308594 309.710938 201.890625 308.351562 202.472656 309.160156 C 202.316406 308.984375 202.1875 308.785156 202.089844 308.5625 C 202.089844 308.503906 202.15625 308.554688 202.210938 308.609375 C 201.792969 307.488281 201.675781 308.390625 201.042969 307.402344 C 201.25 307.417969 201.132812 306.96875 201 306.832031 C 201.253906 307.230469 200.914062 307.199219 200.582031 306.917969 C 200.269531 306.203125 200.0625 306.296875 199.859375 305.957031 L 200.058594 306.375 C 199.851562 306.355469 199.664062 306.023438 199.335938 305.617188 C 199.410156 305.496094 199.664062 305.960938 199.605469 305.765625 C 199.066406 305.46875 199.117188 304.464844 198.523438 303.914062 C 198.40625 303.523438 198.742188 303.679688 198.617188 303.351562 C 197.960938 302.730469 198.253906 302.378906 197.597656 301.691406 C 197.578125 302.070312 197.648438 302.074219 197.117188 301.652344 L 198.089844 302.867188 L 197.296875 302.230469 C 197.550781 302.632812 197.949219 302.980469 198.074219 303.242188 C 197.675781 302.960938 197.742188 302.964844 197.726562 303.277344 C 197.625 302.511719 196.878906 302.324219 196.640625 301.546875 L 197.070312 301.207031 C 196.640625 300.097656 195.761719 299.710938 195.070312 298.390625 L 195.253906 298.847656 C 194.980469 298.824219 194.738281 298.109375 194.410156 297.769531 C 194.574219 297.6875 194.464844 297.394531 194.441406 297.148438 C 194.351562 297.257812 193.867188 296.242188 193.515625 296.371094 L 193.34375 295.664062 C 192.8125 294.667969 192.101562 294.707031 191.410156 293.53125 C 191.554688 293.570312 191.550781 293.417969 191.578125 293.320312 C 191.609375 293.226562 191.667969 293.199219 192.03125 293.625 C 191.703125 293.117188 191.40625 292.601562 191.378906 292.792969 C 191.355469 292.726562 191.328125 292.667969 191.292969 292.613281 L 191.230469 292.523438 C 191.207031 292.496094 191.179688 292.570312 191.152344 292.597656 L 190.78125 293.125 C 190.597656 293.449219 190.359375 293.722656 190.082031 293.933594 C 189.957031 294.195312 190 294.445312 189.640625 294.828125 C 189.578125 294.839844 189.585938 294.746094 189.585938 294.746094 C 189.601562 294.871094 189.199219 295.359375 189.578125 295.253906 C 188.4375 295.648438 187.445312 297.632812 186.441406 297.9375 C 185.925781 298.566406 185.285156 299.304688 184.773438 299.820312 C 184.773438 299.742188 184.71875 299.746094 184.828125 299.664062 C 184.011719 300.226562 184.71875 300.539062 183.777344 301.171875 C 183.179688 301.324219 184.117188 300.617188 183.785156 300.773438 C 183.308594 300.375 182.847656 301.796875 182.074219 302.007812 L 182.1875 301.851562 C 181.644531 302.074219 181.28125 303.007812 180.542969 303.597656 C 180.542969 303.597656 180.546875 303.519531 180.492188 303.515625 C 179.988281 304.371094 179.367188 305.125 178.652344 305.753906 C 178.742188 305.367188 178.902344 305.382812 178.636719 305.277344 C 178.339844 305.566406 178.941406 305.546875 178.347656 306.121094 C 178.070312 306.175781 177.554688 306.445312 177.355469 306.257812 L 177.941406 305.765625 C 177.460938 305.71875 177.179688 306.394531 176.828125 306.589844 L 176.792969 306.425781 C 175.902344 307.191406 176.070312 307.523438 175.054688 308.25 L 175.214844 308.273438 C 174.84375 309.015625 174.644531 308.421875 174.222656 309.066406 L 173.875 308.84375 C 173.316406 309.46875 172.726562 310.046875 172.101562 310.574219 C 172.515625 309.980469 172.976562 309.433594 173.476562 308.933594 C 172.972656 309.230469 172.519531 309.625 172.132812 310.101562 C 172.265625 309.96875 172.410156 309.757812 172.582031 309.710938 C 172.167969 310.390625 171.609375 310.933594 170.960938 311.289062 C 170.898438 310.886719 170.15625 311.273438 169.257812 311.78125 L 168.917969 311.972656 L 168.746094 312.070312 C 168.6875 312.105469 168.597656 312.128906 168.671875 312.195312 C 168.808594 312.421875 168.941406 312.648438 169.058594 312.863281 C 169.269531 313.203125 169.417969 313.582031 169.496094 313.988281 C 169.6875 314.234375 169.875 314.480469 170.0625 314.726562 C 170.1875 314.894531 170.304688 315.0625 170.421875 315.238281 C 170.652344 315.589844 170.867188 315.957031 171.082031 316.339844 C 171.511719 317.097656 171.9375 317.90625 172.484375 318.710938 C 172.527344 317.765625 172.804688 319.175781 173.171875 318.703125 C 173.441406 319.054688 173.53125 319.207031 173.527344 319.265625 L 173.492188 319.171875 L 173.527344 319.273438 L 173.527344 319.269531 L 174.019531 320.644531 C 174.070312 321.027344 173.6875 320.367188 173.613281 320.484375 C 174.125 321.347656 173.660156 320.992188 173.902344 321.640625 C 173.984375 321.394531 174.3125 321.742188 174.5625 322.265625 L 174.328125 321.425781 C 175.3125 322.390625 174.617188 322.746094 175.609375 323.722656 L 175.230469 323.46875 C 175.703125 324 176.671875 325.691406 177.402344 325.984375 C 177.421875 326.132812 177.394531 326.375 177.191406 326.136719 C 178.074219 327.621094 179.644531 329.023438 180.15625 330.324219 L 179.980469 330.308594 C 180.183594 330.550781 180.484375 330.601562 180.59375 331.03125 C 180.539062 331.050781 180.417969 331.015625 180.492188 331.144531 C 180.820312 331.398438 181.097656 331.726562 181.3125 332.105469 L 180.996094 331.90625 C 181.769531 333.429688 182.683594 333.808594 183.523438 334.925781 C 183.210938 335.191406 183.828125 336.382812 184.132812 336.976562 L 184.078125 336.996094 C 185.054688 338.398438 186.113281 339.722656 187.246094 340.957031 C 187.519531 342.1875 189.175781 344.261719 189.964844 345.9375 C 189.871094 345.65625 190.234375 345.765625 190.4375 346.007812 C 190.605469 346.414062 191.289062 346.800781 190.96875 346.988281 L 190.890625 346.859375 C 190.785156 347.367188 191.335938 348.03125 191.695312 348.605469 L 192.128906 348.378906 C 192.554688 350.335938 194.863281 352.101562 194.902344 353.335938 C 195.230469 353.613281 195.519531 354.058594 195.84375 354.335938 L 195.628906 354.488281 C 196.160156 355.445312 196.738281 356.363281 197.371094 357.234375 L 197.0625 357.105469 C 197.503906 357.808594 198.210938 357.484375 198.636719 358.113281 L 198.464844 358.5625 C 199.253906 359.769531 199.789062 361.21875 200.835938 362.179688 C 200.78125 362.199219 200.671875 362.238281 200.53125 362.054688 C 200.894531 362.628906 201.761719 364.429688 202.035156 363.871094 C 201.777344 364.113281 202.820312 365.140625 203.363281 365.691406 L 203.101562 365.761719 C 203.59375 365.949219 204.03125 366.296875 204.359375 366.761719 C 204.453125 366.96875 204.308594 367.058594 204.199219 366.773438 C 204.492188 367.46875 204.695312 367.085938 205.070312 367.914062 L 204.765625 367.746094 C 204.929688 368.109375 205.21875 368.382812 205.5625 368.496094 C 205.894531 368.820312 206.28125 369.726562 206.164062 369.972656 C 206.476562 370.03125 206.746094 370.265625 206.882812 370.59375 C 206.851562 370.699219 206.722656 370.601562 206.65625 370.550781 C 207.203125 371.714844 207.894531 371.910156 208.171875 372.796875 C 208.121094 372.855469 208.109375 372.941406 208.132812 373.019531 C 207.597656 372.183594 207.171875 371.507812 207.226562 371.554688 C 207.046875 371.714844 207.449219 372.410156 206.851562 372.09375 C 207.523438 372.566406 208.105469 373.183594 208.578125 373.90625 C 208.582031 373.953125 208.578125 374.003906 208.570312 374.046875 L 208.503906 374 C 208.582031 374.148438 208.683594 374.28125 208.804688 374.386719 C 208.886719 374.59375 208.988281 374.789062 209.101562 374.976562 C 209 375.183594 209.519531 375.816406 209.730469 376.15625 C 209.910156 375.957031 210.164062 376.421875 210.0625 375.871094 C 210.082031 375.9375 209.996094 375.828125 209.84375 375.613281 C 209.808594 375.566406 209.773438 375.523438 209.730469 375.488281 L 209.761719 375.496094 L 209.207031 374.675781 C 209.523438 374.839844 209.765625 375.144531 209.875 375.519531 C 210.117188 375.582031 210.371094 375.65625 210.5 375.710938 C 210.519531 376.410156 210.945312 377.421875 210.855469 377.691406 C 211.242188 378.15625 211.652344 378.742188 212.0625 379.25 C 212.261719 379.5 212.472656 379.734375 212.691406 379.957031 C 212.898438 380.210938 213.144531 380.414062 213.417969 380.558594 C 213.527344 380.683594 213.609375 380.839844 213.644531 381.011719 C 213.679688 381.164062 213.734375 381.148438 213.800781 381.1875 C 213.738281 381.234375 213.667969 381.265625 213.597656 381.292969 L 213.46875 381.125 C 213.40625 381.035156 213.328125 380.957031 213.242188 380.894531 C 213.417969 381.03125 213.535156 381.523438 213.875 381.210938 L 214.753906 380.800781 C 214.957031 380.710938 215.152344 380.597656 215.335938 380.460938 C 215.460938 380.359375 215.542969 380.257812 215.550781 380.15625 C 216.347656 379.972656 215.234375 380.671875 216.246094 380.140625 L 216.140625 380.3125 C 218.398438 379.921875 219.054688 377.859375 221.453125 377.191406 C 221.285156 377.242188 221.203125 377.269531 221.144531 377.234375 C 223.71875 375.988281 225.753906 373.484375 228.097656 371.878906 C 228.753906 371.390625 228.667969 371.128906 228.910156 370.636719 L 229.214844 370.734375 L 229.597656 369.851562 C 230.246094 368.761719 231.46875 368.796875 232.148438 367.238281 L 231.886719 367.253906 C 232.273438 366.851562 232.894531 365.765625 232.996094 366 C 232.976562 365.839844 233.046875 365.683594 233.171875 365.609375 L 233.289062 365.703125 C 233.507812 365.273438 233.707031 364.835938 233.917969 364.402344 C 234.613281 363.597656 234.261719 364.957031 235.175781 363.667969 C 235.460938 363.140625 235.785156 361.996094 235.585938 362.113281 Z M 230.84375 354.914062 C 230.851562 354.941406 230.851562 354.972656 230.851562 355 L 230.675781 354.730469 C 230.730469 354.789062 230.785156 354.84375 230.84375 354.914062 Z M 209.4375 375.433594 L 209.480469 375.441406 C 209.429688 375.453125 209.375 375.453125 209.324219 375.4375 C 209.148438 375.238281 209.140625 375.132812 209.160156 375.066406 C 209.234375 375.167969 209.320312 375.285156 209.4375 375.433594 Z M 209.4375 375.433594 "/>
<path style=" stroke:none;fill-rule:nonzero;fill:rgb(49.803922%,46.666667%,100%);fill-opacity:1;" d="M 209.84375 375.613281 C 209.871094 375.636719 209.894531 375.664062 209.917969 375.691406 C 209.90625 375.632812 209.894531 375.578125 209.875 375.519531 L 209.761719 375.496094 Z M 209.84375 375.613281 "/>
<path style=" stroke:none;fill-rule:nonzero;fill:rgb(49.803922%,46.666667%,100%);fill-opacity:1;" d="M 217.394531 333.578125 C 217.40625 333.605469 217.410156 333.632812 217.40625 333.664062 C 217.40625 333.644531 217.40625 333.628906 217.410156 333.609375 Z M 217.394531 333.578125 "/>
<path style=" stroke:none;fill-rule:nonzero;fill:rgb(49.803922%,46.666667%,100%);fill-opacity:1;" d="M 228.625 350.414062 C 228.144531 349.125 228.601562 350.789062 227.890625 349.625 L 228.398438 350.542969 C 228.375 350.324219 228.351562 350.039062 228.625 350.414062 Z M 228.625 350.414062 "/>
<path style=" stroke:none;fill-rule:nonzero;fill:rgb(49.803922%,46.666667%,100%);fill-opacity:1;" d="M 226.421875 346.726562 C 226.160156 346.492188 226.097656 346.433594 226.253906 346.839844 C 226.59375 347.277344 226.363281 346.738281 226.421875 346.726562 Z M 226.421875 346.726562 "/>
<path style=" stroke:none;fill-rule:nonzero;fill:rgb(49.803922%,46.666667%,100%);fill-opacity:1;" d="M 213.625 327.40625 L 213.835938 327.296875 C 213.578125 326.960938 213.765625 327.355469 213.625 327.40625 Z M 213.625 327.40625 "/>
<path style=" stroke:none;fill-rule:nonzero;fill:rgb(49.803922%,46.666667%,100%);fill-opacity:1;" d="M 210.265625 321.324219 L 209.808594 320.78125 L 210.136719 321.191406 Z M 210.265625 321.324219 "/>
<path style=" stroke:none;fill-rule:nonzero;fill:rgb(49.803922%,46.666667%,100%);fill-opacity:1;" d="M 186.863281 297.082031 L 187.136719 297.226562 C 187.296875 296.980469 187.125 296.671875 186.863281 297.082031 Z M 186.863281 297.082031 "/>
<path style=" stroke:none;fill-rule:nonzero;fill:rgb(49.803922%,46.666667%,100%);fill-opacity:1;" d="M 174.3125 308.445312 C 174.578125 308.324219 174.835938 308.179688 175.082031 308.011719 C 174.78125 308.003906 174.492188 308.164062 174.3125 308.445312 Z M 174.3125 308.445312 "/>
<path style=" stroke:none;fill-rule:nonzero;fill:rgb(49.803922%,46.666667%,100%);fill-opacity:1;" d="M 192.050781 349.109375 L 192.457031 349.589844 L 192.308594 349.328125 Z M 192.050781 349.109375 "/>
<path style=" stroke:none;fill-rule:nonzero;fill:rgb(62.745098%,38.039216%,41.568627%);fill-opacity:1;" d="M 79.292969 269.503906 L 80.902344 322.894531 L 106.046875 390.960938 C 106.046875 390.960938 99.488281 426.253906 112.605469 424.996094 C 125.726562 423.734375 113.699219 389.699219 113.699219 389.699219 L 101.675781 317.851562 L 99.488281 258.605469 Z M 79.292969 269.503906 "/>
<path style=" stroke:none;fill-rule:nonzero;fill:rgb(81.176471%,80%,87.843137%);fill-opacity:1;" d="M 88.554688 232.136719 L 89.15625 227.375 L 94.019531 229.617188 L 109.328125 257.347656 L 77.621094 276.253906 Z M 88.554688 232.136719 "/>
</g>
</svg>
