<?xml version="1.0" encoding="UTF-8"?>
<svg xmlns="http://www.w3.org/2000/svg" xmlns:xlink="http://www.w3.org/1999/xlink" width="781pt" height="640pt" viewBox="0 0 781 640" version="1.1">
<g id="surface1">
<path style=" stroke:none;fill-rule:nonzero;fill:rgb(80%,80%,80%);fill-opacity:1;" d="M 447.625 626.847656 C 437.566406 626.835938 429.414062 613.316406 429.414062 596.644531 C 429.414062 579.972656 437.566406 566.453125 447.625 566.441406 L 718.351562 566.441406 C 715.578125 558.003906 710.246094 552.75 704.445312 552.746094 L 166.316406 552.746094 C 151.699219 552.773438 139.855469 572.417969 139.855469 596.644531 C 139.863281 620.863281 151.699219 640.503906 166.316406 640.546875 L 704.445312 640.546875 C 710.246094 640.539062 715.578125 635.285156 718.351562 626.847656 Z M 447.625 626.847656 "/>
<path style=" stroke:none;fill-rule:nonzero;fill:rgb(80%,80%,80%);fill-opacity:1;" d="M 718.710938 583.085938 L 461.3125 583.085938 C 460.492188 583.082031 459.828125 581.980469 459.828125 580.621094 C 459.828125 579.261719 460.492188 578.15625 461.3125 578.152344 L 718.710938 578.152344 C 719.53125 578.15625 720.195312 579.261719 720.195312 580.621094 C 720.195312 581.980469 719.53125 583.082031 718.710938 583.085938 Z M 718.710938 583.085938 "/>
<path style=" stroke:none;fill-rule:nonzero;fill:rgb(80%,80%,80%);fill-opacity:1;" d="M 718.710938 599.109375 L 461.3125 599.109375 C 460.492188 599.109375 459.828125 598.007812 459.828125 596.644531 C 459.828125 595.285156 460.492188 594.179688 461.3125 594.179688 L 718.710938 594.179688 C 719.53125 594.179688 720.199219 595.285156 720.199219 596.644531 C 720.199219 598.007812 719.53125 599.109375 718.710938 599.109375 Z M 718.710938 599.109375 "/>
<path style=" stroke:none;fill-rule:nonzero;fill:rgb(80%,80%,80%);fill-opacity:1;" d="M 718.710938 615.136719 L 461.3125 615.136719 C 460.492188 615.132812 459.828125 614.03125 459.828125 612.671875 C 459.828125 611.3125 460.492188 610.207031 461.3125 610.207031 L 718.710938 610.207031 C 719.53125 610.207031 720.195312 611.3125 720.195312 612.671875 C 720.195312 614.03125 719.53125 615.132812 718.710938 615.136719 Z M 718.710938 615.136719 "/>
<path style=" stroke:none;fill-rule:nonzero;fill:rgb(10.196078%,73.72549%,61.176471%);fill-opacity:1;" d="M 377.699219 541.789062 C 367.636719 541.777344 359.484375 528.257812 359.484375 511.585938 C 359.484375 494.914062 367.636719 481.394531 377.699219 481.382812 L 648.421875 481.382812 C 645.648438 472.945312 640.316406 467.691406 634.519531 467.683594 L 96.386719 467.683594 C 81.769531 467.710938 69.925781 487.359375 69.929688 511.585938 C 69.9375 535.804688 81.773438 555.441406 96.386719 555.484375 L 634.519531 555.484375 C 640.316406 555.476562 645.648438 550.226562 648.421875 541.789062 Z M 377.699219 541.789062 "/>
<path style=" stroke:none;fill-rule:nonzero;fill:rgb(80%,80%,80%);fill-opacity:1;" d="M 648.78125 498.023438 L 391.386719 498.023438 C 390.566406 498.023438 389.902344 496.917969 389.902344 495.558594 C 389.902344 494.199219 390.566406 493.097656 391.386719 493.09375 L 648.78125 493.09375 C 649.605469 493.09375 650.269531 494.199219 650.269531 495.558594 C 650.269531 496.921875 649.605469 498.023438 648.78125 498.023438 Z M 648.78125 498.023438 "/>
<path style=" stroke:none;fill-rule:nonzero;fill:rgb(80%,80%,80%);fill-opacity:1;" d="M 648.78125 514.050781 L 391.386719 514.050781 C 390.5625 514.050781 389.898438 512.945312 389.898438 511.585938 C 389.898438 510.222656 390.5625 509.121094 391.386719 509.121094 L 648.78125 509.121094 C 649.605469 509.121094 650.269531 510.222656 650.269531 511.585938 C 650.269531 512.945312 649.605469 514.050781 648.78125 514.050781 Z M 648.78125 514.050781 "/>
<path style=" stroke:none;fill-rule:nonzero;fill:rgb(80%,80%,80%);fill-opacity:1;" d="M 648.78125 530.078125 L 391.386719 530.078125 C 390.566406 530.074219 389.902344 528.96875 389.902344 527.609375 C 389.902344 526.25 390.566406 525.148438 391.386719 525.144531 L 648.78125 525.144531 C 649.316406 525.144531 649.808594 525.613281 650.074219 526.375 C 650.339844 527.140625 650.339844 528.082031 650.074219 528.84375 C 649.808594 529.609375 649.316406 530.078125 648.78125 530.078125 Z M 648.78125 530.078125 "/>
<path style=" stroke:none;fill-rule:nonzero;fill:rgb(80%,80%,80%);fill-opacity:1;" d="M 307.769531 453.890625 C 297.707031 453.878906 289.554688 440.359375 289.554688 423.6875 C 289.554688 407.015625 297.707031 393.496094 307.769531 393.484375 L 578.492188 393.484375 C 575.71875 385.046875 570.386719 379.792969 564.589844 379.789062 L 26.460938 379.789062 C 11.839844 379.8125 0 399.460938 0 423.6875 C 0.0078125 447.90625 11.84375 467.546875 26.460938 467.585938 L 564.589844 467.585938 C 570.386719 467.582031 575.71875 462.328125 578.492188 453.890625 Z M 307.769531 453.890625 "/>
<path style=" stroke:none;fill-rule:nonzero;fill:rgb(80%,80%,80%);fill-opacity:1;" d="M 578.855469 410.128906 L 321.457031 410.128906 C 320.636719 410.125 319.972656 409.019531 319.972656 407.660156 C 319.972656 406.300781 320.636719 405.199219 321.457031 405.195312 L 578.855469 405.195312 C 579.675781 405.195312 580.339844 406.300781 580.339844 407.660156 C 580.339844 409.023438 579.675781 410.128906 578.855469 410.128906 Z M 578.855469 410.128906 "/>
<path style=" stroke:none;fill-rule:nonzero;fill:rgb(80%,80%,80%);fill-opacity:1;" d="M 578.855469 426.152344 L 321.457031 426.152344 C 320.636719 426.152344 319.96875 425.050781 319.96875 423.6875 C 319.96875 422.324219 320.636719 421.222656 321.457031 421.222656 L 578.855469 421.222656 C 579.675781 421.222656 580.339844 422.324219 580.339844 423.6875 C 580.339844 425.050781 579.675781 426.152344 578.855469 426.152344 Z M 578.855469 426.152344 "/>
<path style=" stroke:none;fill-rule:nonzero;fill:rgb(80%,80%,80%);fill-opacity:1;" d="M 578.855469 442.179688 L 321.457031 442.179688 C 320.636719 442.179688 319.96875 441.074219 319.96875 439.714844 C 319.96875 438.351562 320.636719 437.246094 321.457031 437.246094 L 578.855469 437.246094 C 579.675781 437.246094 580.339844 438.351562 580.339844 439.714844 C 580.339844 441.074219 579.675781 442.179688 578.855469 442.179688 Z M 578.855469 442.179688 "/>
<path style=" stroke:none;fill-rule:nonzero;fill:rgb(10.196078%,73.72549%,61.176471%);fill-opacity:1;" d="M 584.796875 266.378906 C 581.867188 266.371094 579.441406 262.601562 579.25 257.757812 L 578.425781 236.859375 C 578.222656 231.773438 580.546875 227.382812 583.617188 227.050781 L 682.429688 216.328125 C 688.980469 215.617188 694.636719 223.839844 695.066406 234.695312 C 695.496094 245.550781 690.53125 254.925781 683.984375 255.636719 L 585.167969 266.359375 C 585.046875 266.371094 584.921875 266.378906 584.796875 266.378906 Z M 584.796875 266.378906 "/>
<path style=" stroke:none;fill-rule:nonzero;fill:rgb(18.431373%,18.039216%,25.490196%);fill-opacity:1;" d="M 604.28125 269.074219 C 601.289062 269.066406 598.835938 265.144531 598.722656 260.191406 L 598.019531 228.976562 C 597.902344 223.886719 600.300781 219.605469 603.371094 219.414062 L 684.628906 214.382812 C 687.703125 214.191406 690.285156 218.164062 690.398438 223.257812 L 691.105469 254.472656 C 691.21875 259.5625 688.820312 263.84375 685.75 264.035156 L 604.492188 269.066406 C 604.421875 269.070312 604.351562 269.074219 604.28125 269.074219 Z M 604.28125 269.074219 "/>
<path style=" stroke:none;fill-rule:nonzero;fill:rgb(18.431373%,18.039216%,25.490196%);fill-opacity:1;" d="M 699.5 556.832031 L 686.863281 556.832031 C 683.789062 556.828125 681.300781 552.703125 681.296875 547.609375 L 681.296875 373.042969 C 681.300781 367.953125 683.789062 363.824219 686.863281 363.820312 L 699.5 363.820312 C 702.574219 363.824219 705.066406 367.953125 705.066406 373.042969 L 705.066406 547.609375 C 705.066406 552.703125 702.574219 556.828125 699.5 556.832031 Z M 699.5 556.832031 "/>
<path style=" stroke:none;fill-rule:nonzero;fill:rgb(18.431373%,18.039216%,25.490196%);fill-opacity:1;" d="M 643.398438 464.558594 L 632.589844 453.703125 C 629.964844 451.058594 629.125 445.390625 630.714844 441.035156 L 685.320312 291.75 C 686.917969 287.398438 690.335938 286.007812 692.964844 288.644531 L 703.773438 299.5 C 706.402344 302.144531 707.238281 307.8125 705.648438 312.167969 L 651.042969 461.453125 C 649.449219 465.804688 646.027344 467.195312 643.398438 464.558594 Z M 643.398438 464.558594 "/>
<path style=" stroke:none;fill-rule:nonzero;fill:rgb(10.196078%,73.72549%,61.176471%);fill-opacity:1;" d="M 723.980469 109.269531 C 723.980469 149.238281 704.425781 181.640625 680.304688 181.640625 C 656.183594 181.640625 636.628906 149.238281 636.628906 109.269531 C 636.628906 69.300781 656.183594 36.898438 680.304688 36.898438 C 704.425781 36.898438 723.980469 69.300781 723.980469 109.269531 Z M 723.980469 109.269531 "/>
<path style=" stroke:none;fill-rule:nonzero;fill:rgb(18.431373%,18.039216%,25.490196%);fill-opacity:1;" d="M 656.664062 133.980469 C 655.257812 133.214844 653.96875 131.960938 652.882812 130.300781 C 651.421875 127.902344 650.675781 124.558594 650.847656 121.164062 C 650.9375 118.742188 651.710938 116.53125 652.929688 115.1875 C 654.492188 113.527344 656.578125 113.523438 658.707031 115.074219 L 658.625 86.820312 L 660.339844 86.808594 L 660.433594 120.023438 L 659.113281 118.648438 C 657.582031 117.054688 655.398438 115.933594 653.855469 117.578125 C 653.082031 118.457031 652.597656 119.882812 652.550781 121.433594 C 652.433594 123.960938 652.988281 126.449219 654.066406 128.246094 C 655.957031 131.242188 658.714844 132.175781 661.863281 133.015625 L 661.589844 135.816406 C 659.917969 135.449219 658.269531 134.835938 656.664062 133.980469 Z M 656.664062 133.980469 "/>
<path style=" stroke:none;fill-rule:nonzero;fill:rgb(18.431373%,18.039216%,25.490196%);fill-opacity:1;" d="M 640.746094 88.207031 L 640.96875 85.394531 L 650.117188 87.394531 L 649.890625 90.210938 Z M 640.746094 88.207031 "/>
<path style=" stroke:none;fill-rule:nonzero;fill:rgb(18.431373%,18.039216%,25.490196%);fill-opacity:1;" d="M 669.613281 94.523438 L 669.835938 91.710938 L 678.980469 93.710938 L 678.757812 96.523438 Z M 669.613281 94.523438 "/>
<path style=" stroke:none;fill-rule:nonzero;fill:rgb(18.431373%,18.039216%,25.490196%);fill-opacity:1;" d="M 716.773438 419.878906 L 643.125 419.878906 C 639.109375 419.871094 635.851562 414.476562 635.847656 407.816406 L 651.265625 211.894531 C 651.289062 205.269531 654.542969 199.917969 658.539062 199.925781 L 684.675781 199.925781 C 706.414062 199.964844 724.027344 229.152344 724.050781 265.171875 L 724.050781 407.816406 C 724.046875 414.476562 720.792969 419.871094 716.773438 419.878906 Z M 716.773438 419.878906 "/>
<path style=" stroke:none;fill-rule:nonzero;fill:rgb(10.196078%,73.72549%,61.176471%);fill-opacity:1;" d="M 780.136719 342.679688 C 781.066406 345.972656 780.742188 349.867188 779.308594 352.621094 L 771.042969 368.46875 C 769.035156 372.324219 765.519531 372.75 763.191406 369.417969 L 688.261719 262.140625 C 683.292969 255.03125 682.742188 242.589844 687.035156 234.359375 C 691.328125 226.125 698.835938 225.21875 703.800781 232.335938 L 778.734375 339.613281 C 779.328125 340.457031 779.804688 341.503906 780.136719 342.679688 Z M 780.136719 342.679688 "/>
<path style=" stroke:none;fill-rule:nonzero;fill:rgb(18.431373%,18.039216%,25.490196%);fill-opacity:1;" d="M 763.597656 307.277344 C 764.527344 310.570312 764.203125 314.464844 762.769531 317.21875 L 748.65625 344.289062 C 746.644531 348.140625 743.132812 348.5625 740.804688 345.238281 L 679.273438 257.148438 C 676.945312 253.820312 676.691406 247.992188 678.699219 244.140625 L 692.8125 217.066406 C 694.824219 213.214844 698.339844 212.789062 700.664062 216.117188 L 762.195312 304.207031 C 762.789062 305.054688 763.265625 306.101562 763.597656 307.277344 Z M 763.597656 307.277344 "/>
<path style=" stroke:none;fill-rule:nonzero;fill:rgb(18.431373%,18.039216%,25.490196%);fill-opacity:1;" d="M 681.121094 66.34375 C 675.285156 58.339844 667.480469 65.910156 660.875 64.835938 C 654.558594 63.808594 649.476562 54.597656 648.089844 44.683594 C 646.472656 33.117188 649.976562 21.371094 655.253906 13.964844 C 661.035156 5.847656 668.796875 3.328125 676.191406 4.5625 C 684.667969 5.976562 692.476562 12.265625 699.507812 19.949219 C 706.292969 27.128906 712.550781 35.585938 718.164062 45.148438 C 723.191406 54.007812 727.484375 64.617188 728.957031 76.703125 C 730.292969 87.683594 729.507812 99.925781 725.683594 109.386719 C 723.65625 114.238281 720.90625 118.140625 717.699219 120.714844 C 714.359375 123.566406 710.785156 125.640625 707.554688 128.84375 C 702.671875 133.6875 697.984375 143.5625 699.644531 153.632812 C 700.003906 155.835938 700.679688 157.855469 701.621094 159.519531 C 702.75 161.515625 704.710938 158.769531 703.578125 156.765625 C 701.59375 153.246094 701.613281 148.46875 702.601562 144.164062 C 703.78125 139.308594 705.917969 135.261719 708.667969 132.683594 C 712.046875 129.335938 715.800781 127.21875 719.269531 124.15625 C 722.59375 121.355469 725.457031 117.265625 727.621094 112.234375 C 731.707031 102.445312 732.816406 89.835938 731.730469 78.242188 C 730.558594 65.691406 726.527344 54.378906 721.527344 44.953125 C 716.082031 34.691406 709.445312 26.070312 702.675781 18.351562 C 695.410156 10.070312 687.410156 3.125 678.621094 0.796875 C 671 -1.21875 662.78125 0.429688 656.21875 7.496094 C 650.09375 14.09375 645.46875 25.257812 645.136719 37.578125 C 644.921875 48.988281 648.441406 59.703125 654.34375 65.589844 C 657.316406 68.414062 660.75 69.617188 664.15625 69.035156 C 667.800781 68.53125 671.433594 66.566406 675.109375 66.964844 C 676.773438 67.078125 678.367188 68.089844 679.65625 69.84375 C 680.929688 71.589844 682.386719 68.082031 681.121094 66.34375 Z M 681.121094 66.34375 "/>
<path style=" stroke:none;fill-rule:nonzero;fill:rgb(18.431373%,18.039216%,25.490196%);fill-opacity:1;" d="M 629.765625 443.554688 C 629.78125 443.394531 629.800781 443.234375 629.820312 443.074219 C 630.128906 440.683594 631 438.589844 632.246094 437.269531 L 642.867188 425.917969 C 645.449219 423.164062 648.894531 424.394531 650.5625 428.667969 L 683.328125 512.847656 C 684.992188 517.128906 684.25 522.835938 681.667969 525.597656 L 671.042969 536.953125 C 668.460938 539.707031 665.019531 538.476562 663.351562 534.199219 L 630.585938 450.023438 C 629.835938 448.109375 629.542969 445.804688 629.765625 443.554688 Z M 629.765625 443.554688 "/>
</g>
</svg>
